Istok-BoldItalic.ufo
<glyph name="parenleft" format="2">
  <advance width="740"/>
  <unicode hex="0028"/>
  <outline>
    <contour>
      <point x="77.0" y="339.0" type="qcurve" smooth="yes"/>
      <point x="77.0" y="768.0"/>
      <point x="544.0" y="1424.0"/>
      <point x="738.0" y="1531.0" type="qcurve" smooth="yes"/>
      <point x="788.0" y="1558.0"/>
      <point x="809.0" y="1540.0" type="qcurve"/>
      <point x="895.0" y="1458.0" type="line" smooth="yes"/>
      <point x="928.0" y="1426.0"/>
      <point x="878.0" y="1386.0" type="qcurve" smooth="yes"/>
      <point x="708.0" y="1248.0"/>
      <point x="377.0" y="740.0"/>
      <point x="377.0" y="327.0" type="qcurve" smooth="yes"/>
      <point x="377.0" y="76.0"/>
      <point x="420.0" y="-195.0"/>
      <point x="473.0" y="-315.0" type="qcurve" smooth="yes"/>
      <point x="499.0" y="-373.0"/>
      <point x="460.0" y="-398.0" type="qcurve" smooth="yes"/>
      <point x="379.0" y="-450.0" type="line" smooth="yes"/>
      <point x="337.0" y="-477.0"/>
      <point x="301.0" y="-426.0" type="qcurve" smooth="yes"/>
      <point x="204.0" y="-291.0"/>
      <point x="77.0" y="100.0"/>
    </contour>
  </outline>
</glyph>
<glyph name="hyphen" format="2">
  <advance width="700"/>
  <unicode hex="002D"/>
  <outline>
    <contour>
      <point x="96.0" y="446.0" type="line" smooth="yes"/>
      <point x="36.0" y="446.0"/>
      <point x="48.0" y="496.0" type="qcurve" smooth="yes"/>
      <point x="74.0" y="610.0" type="line" smooth="yes"/>
      <point x="86.0" y="660.0"/>
      <point x="145.0" y="660.0" type="qcurve" smooth="yes"/>
      <point x="619.0" y="660.0" type="line" smooth="yes"/>
      <point x="679.0" y="660.0"/>
      <point x="668.0" y="610.0" type="qcurve" smooth="yes"/>
      <point x="642.0" y="496.0" type="line" smooth="yes"/>
      <point x="630.0" y="446.0"/>
      <point x="570.0" y="446.0" type="qcurve" smooth="yes"/>
    </contour>
  </outline>
</glyph>
<glyph name="slash" format="2">
  <advance width="856"/>
  <unicode hex="002F"/>
  <outline>
    <contour>
      <point x="-177.0" y="-368.0" type="line" smooth="yes"/>
      <point x="-217.0" y="-345.0"/>
      <point x="-185.0" y="-294.0" type="qcurve" smooth="yes"/>
      <point x="878.0" y="1432.0" type="line" smooth="yes"/>
      <point x="915.0" y="1493.0"/>
      <point x="955.0" y="1470.0" type="qcurve" smooth="yes"/>
      <point x="1037.0" y="1423.0" type="line" smooth="yes"/>
      <point x="1077.0" y="1400.0"/>
      <point x="1045.0" y="1349.0" type="qcurve" smooth="yes"/>
      <point x="-19.0" y="-377.0" type="line" smooth="yes"/>
      <point x="-56.0" y="-437.0"/>
      <point x="-95.0" y="-415.0" type="qcurve" smooth="yes"/>
    </contour>
  </outline>
</glyph>
<glyph name="one" format="2">
  <advance width="907"/>
  <unicode hex="0031"/>
  <outline>
    <contour>
      <point x="293.0" y="1138.0" type="line" smooth="yes"/>
      <point x="275.0" y="1186.0"/>
      <point x="345.0" y="1214.0" type="qcurve" smooth="yes"/>
      <point x="409.0" y="1240.0"/>
      <point x="562.0" y="1334.0"/>
      <point x="614.0" y="1384.0" type="qcurve" smooth="yes"/>
      <point x="672.0" y="1440.0"/>
      <point x="712.0" y="1440.0" type="qcurve" smooth="yes"/>
      <point x="871.0" y="1440.0" type="line" smooth="yes"/>
      <point x="932.0" y="1440.0"/>
      <point x="918.0" y="1380.0" type="qcurve" smooth="yes"/>
      <point x="613.0" y="60.0" type="line" smooth="yes"/>
      <point x="599.0" y="0.0"/>
      <point x="539.0" y="0.0" type="qcurve" smooth="yes"/>
      <point x="379.0" y="0.0" type="line" smooth="yes"/>
      <point x="319.0" y="0.0"/>
      <point x="333.0" y="60.0" type="qcurve" smooth="yes"/>
      <point x="547.0" y="991.0" type="line" smooth="yes"/>
      <point x="557.0" y="1033.0"/>
      <point x="570.0" y="1071.0" type="qcurve"/>
      <point x="566.0" y="1071.0" type="line"/>
      <point x="535.0" y="1034.0"/>
      <point x="456.0" y="988.0"/>
      <point x="411.0" y="972.0" type="qcurve" smooth="yes"/>
      <point x="362.0" y="955.0"/>
      <point x="346.0" y="998.0" type="qcurve" smooth="yes"/>
    </contour>
  </outline>
</glyph>
<glyph name="two" format="2">
  <advance width="1200"/>
  <unicode hex="0032"/>
  <outline>
    <contour>
      <point x="43.0" y="0.0" type="line" smooth="yes"/>
      <point x="-32.0" y="0.0"/>
      <point x="-17.0" y="65.0" type="qcurve" smooth="yes"/>
      <point x="-6.0" y="113.0" type="line" smooth="yes"/>
      <point x="6.0" y="165.0"/>
      <point x="66.0" y="216.0" type="qcurve" smooth="yes"/>
      <point x="438.0" y="531.0" type="line" smooth="yes"/>
      <point x="627.0" y="691.0"/>
      <point x="915.0" y="987.0"/>
      <point x="915.0" y="1075.0" type="qcurve" smooth="yes"/>
      <point x="915.0" y="1170.0"/>
      <point x="825.0" y="1232.0"/>
      <point x="764.0" y="1232.0" type="qcurve" smooth="yes"/>
      <point x="645.0" y="1232.0"/>
      <point x="501.0" y="1128.0"/>
      <point x="447.0" y="1031.0" type="qcurve" smooth="yes"/>
      <point x="406.0" y="958.0"/>
      <point x="363.0" y="980.0" type="qcurve" smooth="yes"/>
      <point x="268.0" y="1029.0" type="line" smooth="yes"/>
      <point x="210.0" y="1059.0"/>
      <point x="240.0" y="1123.0" type="qcurve" smooth="yes"/>
      <point x="309.0" y="1269.0"/>
      <point x="561.0" y="1456.0"/>
      <point x="801.0" y="1456.0" type="qcurve" smooth="yes"/>
      <point x="996.0" y="1456.0"/>
      <point x="1215.0" y="1263.0"/>
      <point x="1215.0" y="1094.0" type="qcurve" smooth="yes"/>
      <point x="1215.0" y="910.0"/>
      <point x="779.0" y="532.0"/>
      <point x="655.0" y="429.0" type="qcurve" smooth="yes"/>
      <point x="440.0" y="250.0" type="line"/>
      <point x="438.0" y="244.0" type="line"/>
      <point x="499.0" y="248.0"/>
      <point x="539.0" y="248.0" type="qcurve" smooth="yes"/>
      <point x="972.0" y="248.0" type="line" smooth="yes"/>
      <point x="1047.0" y="248.0"/>
      <point x="1032.0" y="183.0" type="qcurve" smooth="yes"/>
      <point x="1005.0" y="65.0" type="line" smooth="yes"/>
      <point x="990.0" y="0.0"/>
      <point x="915.0" y="0.0" type="qcurve" smooth="yes"/>
    </contour>
  </outline>
</glyph>
<glyph name="nine" format="2">
  <advance width="1200"/>
  <unicode hex="0039"/>
  <outline>
    <contour>
      <point x="171.0" y="897.0" type="qcurve" smooth="yes"/>
      <point x="171.0" y="1131.0"/>
      <point x="504.0" y="1456.0"/>
      <point x="758.0" y="1456.0" type="qcurve" smooth="yes"/>
      <point x="978.0" y="1456.0"/>
      <point x="1175.0" y="1203.0"/>
      <point x="1175.0" y="931.0" type="qcurve" smooth="yes"/>
      <point x="1175.0" y="513.0"/>
      <point x="777.0" y="-34.0"/>
      <point x="460.0" y="-34.0" type="qcurve" smooth="yes"/>
      <point x="340.0" y="-34.0"/>
      <point x="171.0" y="9.0"/>
      <point x="103.0" y="66.0" type="qcurve" smooth="yes"/>
      <point x="51.0" y="110.0"/>
      <point x="82.0" y="150.0" type="qcurve" smooth="yes"/>
      <point x="159.0" y="249.0" type="line" smooth="yes"/>
      <point x="190.0" y="289.0"/>
      <point x="252.0" y="249.0" type="qcurve" smooth="yes"/>
      <point x="306.0" y="214.0"/>
      <point x="409.0" y="190.0"/>
      <point x="469.0" y="190.0" type="qcurve" smooth="yes"/>
      <point x="594.0" y="190.0"/>
      <point x="819.0" y="402.0"/>
      <point x="870.0" y="625.0" type="qcurve"/>
      <point x="866.0" y="625.0" type="line"/>
      <point x="803.0" y="550.0"/>
      <point x="627.0" y="496.0"/>
      <point x="546.0" y="496.0" type="qcurve" smooth="yes"/>
      <point x="354.0" y="496.0"/>
      <point x="171.0" y="711.0"/>
    </contour>
    <contour>
      <point x="471.0" y="872.0" type="qcurve" smooth="yes"/>
      <point x="471.0" y="792.0"/>
      <point x="567.0" y="720.0"/>
      <point x="627.0" y="720.0" type="qcurve" smooth="yes"/>
      <point x="750.0" y="720.0"/>
      <point x="889.0" y="924.0"/>
      <point x="889.0" y="1039.0" type="qcurve" smooth="yes"/>
      <point x="889.0" y="1143.0"/>
      <point x="792.0" y="1232.0"/>
      <point x="721.0" y="1232.0" type="qcurve" smooth="yes"/>
      <point x="619.0" y="1232.0"/>
      <point x="471.0" y="1020.0"/>
    </contour>
  </outline>
</glyph>
<glyph name="E" format="2">
  <advance width="1280"/>
  <unicode hex="0045"/>
  <outline>
    <contour>
      <point x="110.0" y="0.0" type="line" smooth="yes"/>
      <point x="40.0" y="0.0"/>
      <point x="57.0" y="75.0" type="qcurve" smooth="yes"/>
      <point x="354.0" y="1359.0" type="line" smooth="yes"/>
      <point x="371.0" y="1434.0"/>
      <point x="441.0" y="1434.0" type="qcurve" smooth="yes"/>
      <point x="1299.0" y="1434.0" type="line" smooth="yes"/>
      <point x="1374.0" y="1434.0"/>
      <point x="1359.0" y="1369.0" type="qcurve" smooth="yes"/>
      <point x="1332.0" y="1251.0" type="line" smooth="yes"/>
      <point x="1317.0" y="1186.0"/>
      <point x="1242.0" y="1186.0" type="qcurve" smooth="yes"/>
      <point x="606.0" y="1186.0" type="line"/>
      <point x="532.0" y="868.0" type="line"/>
      <point x="1115.0" y="868.0" type="line" smooth="yes"/>
      <point x="1190.0" y="868.0"/>
      <point x="1175.0" y="803.0" type="qcurve" smooth="yes"/>
      <point x="1148.0" y="685.0" type="line" smooth="yes"/>
      <point x="1133.0" y="620.0"/>
      <point x="1058.0" y="620.0" type="qcurve" smooth="yes"/>
      <point x="475.0" y="620.0" type="line"/>
      <point x="389.0" y="248.0" type="line"/>
      <point x="1057.0" y="248.0" type="line" smooth="yes"/>
      <point x="1132.0" y="248.0"/>
      <point x="1117.0" y="183.0" type="qcurve" smooth="yes"/>
      <point x="1090.0" y="65.0" type="line" smooth="yes"/>
      <point x="1075.0" y="0.0"/>
      <point x="1000.0" y="0.0" type="qcurve" smooth="yes"/>
    </contour>
  </outline>
</glyph>
<glyph name="G" format="2">
  <advance width="1510"/>
  <unicode hex="0047"/>
  <outline>
    <contour>
      <point x="100.0" y="588.0" type="qcurve" smooth="yes"/>
      <point x="100.0" y="951.0"/>
      <point x="501.0" y="1468.0"/>
      <point x="902.0" y="1468.0" type="qcurve" smooth="yes"/>
      <point x="1082.0" y="1468.0"/>
      <point x="1344.0" y="1353.0"/>
      <point x="1400.0" y="1261.0" type="qcurve" smooth="yes"/>
      <point x="1440.0" y="1195.0"/>
      <point x="1383.0" y="1157.0" type="qcurve" smooth="yes"/>
      <point x="1259.0" y="1074.0" type="line" smooth="yes"/>
      <point x="1213.0" y="1043.0"/>
      <point x="1163.0" y="1110.0" type="qcurve" smooth="yes"/>
      <point x="1113.0" y="1176.0"/>
      <point x="953.0" y="1232.0"/>
      <point x="881.0" y="1232.0" type="qcurve" smooth="yes"/>
      <point x="657.0" y="1232.0"/>
      <point x="412.0" y="876.0"/>
      <point x="412.0" y="550.0" type="qcurve" smooth="yes"/>
      <point x="412.0" y="399.0"/>
      <point x="558.0" y="202.0"/>
      <point x="766.0" y="202.0" type="qcurve" smooth="yes"/>
      <point x="859.0" y="202.0"/>
      <point x="1015.0" y="264.0"/>
      <point x="1078.0" y="312.0" type="qcurve"/>
      <point x="1116.0" y="476.0" type="line"/>
      <point x="899.0" y="476.0" type="line" smooth="yes"/>
      <point x="824.0" y="476.0"/>
      <point x="839.0" y="541.0" type="qcurve" smooth="yes"/>
      <point x="866.0" y="659.0" type="line" smooth="yes"/>
      <point x="881.0" y="724.0"/>
      <point x="956.0" y="724.0" type="qcurve" smooth="yes"/>
      <point x="1390.0" y="724.0" type="line" smooth="yes"/>
      <point x="1465.0" y="724.0"/>
      <point x="1450.0" y="659.0" type="qcurve" smooth="yes"/>
      <point x="1330.0" y="138.0" type="line"/>
      <point x="1207.0" y="66.0"/>
      <point x="904.0" y="-34.0"/>
      <point x="745.0" y="-34.0" type="qcurve" smooth="yes"/>
      <point x="447.0" y="-34.0"/>
      <point x="100.0" y="273.0"/>
    </contour>
  </outline>
</glyph>
<glyph name="J" format="2">
  <advance width="947"/>
  <unicode hex="004A"/>
  <outline>
    <contour>
      <point x="-26.0" y="22.0" type="qcurve" smooth="yes"/>
      <point x="-66.0" y="47.0"/>
      <point x="-48.0" y="97.0" type="qcurve" smooth="yes"/>
      <point x="2.0" y="231.0" type="line" smooth="yes"/>
      <point x="23.0" y="287.0"/>
      <point x="92.0" y="243.0" type="qcurve" smooth="yes"/>
      <point x="156.0" y="202.0"/>
      <point x="228.0" y="202.0" type="qcurve" smooth="yes"/>
      <point x="343.0" y="202.0"/>
      <point x="459.0" y="363.0"/>
      <point x="498.0" y="531.0" type="qcurve" smooth="yes"/>
      <point x="689.0" y="1359.0" type="line" smooth="yes"/>
      <point x="706.0" y="1434.0"/>
      <point x="776.0" y="1434.0" type="qcurve" smooth="yes"/>
      <point x="928.0" y="1434.0" type="line" smooth="yes"/>
      <point x="998.0" y="1434.0"/>
      <point x="981.0" y="1359.0" type="qcurve" smooth="yes"/>
      <point x="794.0" y="551.0" type="line" smooth="yes"/>
      <point x="709.0" y="183.0"/>
      <point x="429.0" y="-34.0"/>
      <point x="207.0" y="-34.0" type="qcurve" smooth="yes"/>
      <point x="66.0" y="-34.0"/>
    </contour>
  </outline>
</glyph>
<glyph name="L" format="2">
  <advance width="1162"/>
  <unicode hex="004C"/>
  <outline>
    <contour>
      <point x="110.0" y="0.0" type="line" smooth="yes"/>
      <point x="40.0" y="0.0"/>
      <point x="57.0" y="75.0" type="qcurve" smooth="yes"/>
      <point x="354.0" y="1359.0" type="line" smooth="yes"/>
      <point x="371.0" y="1434.0"/>
      <point x="441.0" y="1434.0" type="qcurve" smooth="yes"/>
      <point x="603.0" y="1434.0" type="line" smooth="yes"/>
      <point x="663.0" y="1434.0"/>
      <point x="646.0" y="1359.0" type="qcurve" smooth="yes"/>
      <point x="389.0" y="248.0" type="line"/>
      <point x="972.0" y="248.0" type="line" smooth="yes"/>
      <point x="1047.0" y="248.0"/>
      <point x="1032.0" y="183.0" type="qcurve" smooth="yes"/>
      <point x="1005.0" y="65.0" type="line" smooth="yes"/>
      <point x="990.0" y="0.0"/>
      <point x="915.0" y="0.0" type="qcurve" smooth="yes"/>
    </contour>
  </outline>
</glyph>
<glyph name="Q" format="2">
  <advance width="1532"/>
  <unicode hex="0051"/>
  <outline>
    <contour>
      <point x="104.0" y="587.0" type="qcurve" smooth="yes"/>
      <point x="104.0" y="957.0"/>
      <point x="530.0" y="1468.0"/>
      <point x="880.0" y="1468.0" type="qcurve" smooth="yes"/>
      <point x="1180.0" y="1468.0"/>
      <point x="1518.0" y="1157.0"/>
      <point x="1518.0" y="847.0" type="qcurve" smooth="yes"/>
      <point x="1518.0" y="478.0"/>
      <point x="1305.0" y="222.0" type="qcurve" smooth="yes"/>
      <point x="1140.0" y="24.0"/>
      <point x="892.0" y="-21.0" type="qcurve"/>
      <point x="898.0" y="-111.0"/>
      <point x="962.0" y="-202.0"/>
      <point x="1069.0" y="-202.0" type="qcurve" smooth="yes"/>
      <point x="1119.0" y="-202.0"/>
      <point x="1173.0" y="-185.0" type="qcurve" smooth="yes"/>
      <point x="1221.0" y="-170.0"/>
      <point x="1231.0" y="-207.0" type="qcurve" smooth="yes"/>
      <point x="1264.0" y="-323.0" type="line" smooth="yes"/>
      <point x="1274.0" y="-358.0"/>
      <point x="1228.0" y="-373.0" type="qcurve" smooth="yes"/>
      <point x="1125.0" y="-407.0"/>
      <point x="1007.0" y="-407.0" type="qcurve" smooth="yes"/>
      <point x="790.0" y="-407.0"/>
      <point x="607.0" y="-203.0"/>
      <point x="599.0" y="-24.0" type="qcurve"/>
      <point x="399.0" y="6.0"/>
      <point x="273.0" y="122.0" type="qcurve" smooth="yes"/>
      <point x="104.0" y="278.0"/>
    </contour>
    <contour>
      <point x="416.0" y="545.0" type="qcurve" smooth="yes"/>
      <point x="416.0" y="385.0"/>
      <point x="586.0" y="202.0"/>
      <point x="756.0" y="202.0" type="qcurve" smooth="yes"/>
      <point x="956.0" y="202.0"/>
      <point x="1206.0" y="579.0"/>
      <point x="1206.0" y="889.0" type="qcurve" smooth="yes"/>
      <point x="1206.0" y="1049.0"/>
      <point x="1036.0" y="1232.0"/>
      <point x="866.0" y="1232.0" type="qcurve" smooth="yes"/>
      <point x="666.0" y="1232.0"/>
      <point x="416.0" y="855.0"/>
    </contour>
  </outline>
</glyph>
<glyph name="V" format="2">
  <advance width="1370"/>
  <unicode hex="0056"/>
  <outline>
    <contour>
      <point x="239.0" y="1368.0" type="line" smooth="yes"/>
      <point x="230.0" y="1434.0"/>
      <point x="301.0" y="1434.0" type="qcurve" smooth="yes"/>
      <point x="440.0" y="1434.0" type="line" smooth="yes"/>
      <point x="507.0" y="1434.0"/>
      <point x="516.0" y="1365.0" type="qcurve" smooth="yes"/>
      <point x="629.0" y="530.0" type="line" smooth="yes"/>
      <point x="636.0" y="470.0"/>
      <point x="636.0" y="422.0"/>
      <point x="629.0" y="373.0" type="qcurve"/>
      <point x="633.0" y="373.0" type="line"/>
      <point x="650.0" y="422.0"/>
      <point x="671.0" y="472.0"/>
      <point x="705.0" y="530.0" type="qcurve" smooth="yes"/>
      <point x="1204.0" y="1365.0" type="line" smooth="yes"/>
      <point x="1245.0" y="1434.0"/>
      <point x="1312.0" y="1434.0" type="qcurve" smooth="yes"/>
      <point x="1491.0" y="1434.0" type="line" smooth="yes"/>
      <point x="1563.0" y="1434.0"/>
      <point x="1523.0" y="1368.0" type="qcurve" smooth="yes"/>
      <point x="748.0" y="81.0" type="line" smooth="yes"/>
      <point x="699.0" y="0.0"/>
      <point x="635.0" y="0.0" type="qcurve" smooth="yes"/>
      <point x="495.0" y="0.0" type="line" smooth="yes"/>
      <point x="431.0" y="0.0"/>
      <point x="420.0" y="81.0" type="qcurve" smooth="yes"/>
    </contour>
  </outline>
</glyph>
<glyph name="f" format="2">
  <advance width="682"/>
  <unicode hex="0066"/>
  <outline>
    <contour>
      <point x="177.0" y="850.0" type="line" smooth="yes"/>
      <point x="119.0" y="850.0"/>
      <point x="130.0" y="900.0" type="qcurve" smooth="yes"/>
      <point x="153.0" y="1000.0" type="line" smooth="yes"/>
      <point x="165.0" y="1050.0"/>
      <point x="223.0" y="1050.0" type="qcurve" smooth="yes"/>
      <point x="279.0" y="1050.0" type="line"/>
      <point x="312.0" y="1190.0" type="line" smooth="yes"/>
      <point x="350.0" y="1353.0"/>
      <point x="552.0" y="1496.0"/>
      <point x="732.0" y="1496.0" type="qcurve" smooth="yes"/>
      <point x="791.0" y="1496.0"/>
      <point x="883.0" y="1473.0"/>
      <point x="921.0" y="1458.0" type="qcurve" smooth="yes"/>
      <point x="956.0" y="1444.0"/>
      <point x="940.0" y="1405.0" type="qcurve" smooth="yes"/>
      <point x="895.0" y="1297.0" type="line" smooth="yes"/>
      <point x="885.0" y="1272.0"/>
      <point x="846.0" y="1284.0" type="qcurve" smooth="yes"/>
      <point x="817.0" y="1293.0"/>
      <point x="747.0" y="1300.0"/>
      <point x="724.0" y="1300.0" type="qcurve" smooth="yes"/>
      <point x="640.0" y="1300.0"/>
      <point x="593.0" y="1184.0"/>
      <point x="569.0" y="1090.0" type="qcurve" smooth="yes"/>
      <point x="559.0" y="1050.0" type="line"/>
      <point x="691.0" y="1050.0" type="line" smooth="yes"/>
      <point x="751.0" y="1050.0"/>
      <point x="739.0" y="1000.0" type="qcurve" smooth="yes"/>
      <point x="716.0" y="900.0" type="line" smooth="yes"/>
      <point x="704.0" y="850.0"/>
      <point x="645.0" y="850.0" type="qcurve" smooth="yes"/>
      <point x="513.0" y="850.0" type="line"/>
      <point x="239.0" y="-340.0" type="line" smooth="yes"/>
      <point x="225.0" y="-400.0"/>
      <point x="165.0" y="-400.0" type="qcurve" smooth="yes"/>
      <point x="5.0" y="-400.0" type="line" smooth="yes"/>
      <point x="-55.0" y="-400.0"/>
      <point x="-41.0" y="-340.0" type="qcurve" smooth="yes"/>
      <point x="233.0" y="850.0" type="line"/>
    </contour>
  </outline>
</glyph>
<glyph name="h" format="2">
  <advance width="1200"/>
  <unicode hex="0068"/>
  <outline>
    <contour>
      <point x="76.0" y="0.0" type="line" smooth="yes"/>
      <point x="16.0" y="0.0"/>
      <point x="30.0" y="60.0" type="qcurve" smooth="yes"/>
      <point x="343.0" y="1416.0" type="line" smooth="yes"/>
      <point x="357.0" y="1476.0"/>
      <point x="417.0" y="1476.0" type="qcurve" smooth="yes"/>
      <point x="577.0" y="1476.0" type="line" smooth="yes"/>
      <point x="637.0" y="1476.0"/>
      <point x="623.0" y="1416.0" type="qcurve" smooth="yes"/>
      <point x="526.0" y="992.0" type="line" smooth="yes"/>
      <point x="517.0" y="951.0"/>
      <point x="503.0" y="912.0" type="qcurve"/>
      <point x="508.0" y="912.0" type="line"/>
      <point x="588.0" y="1006.0"/>
      <point x="733.0" y="1070.0"/>
      <point x="833.0" y="1070.0" type="qcurve" smooth="yes"/>
      <point x="978.0" y="1070.0"/>
      <point x="1144.0" y="856.0"/>
      <point x="1088.0" y="614.0" type="qcurve" smooth="yes"/>
      <point x="960.0" y="60.0" type="line" smooth="yes"/>
      <point x="946.0" y="0.0"/>
      <point x="886.0" y="0.0" type="qcurve" smooth="yes"/>
      <point x="726.0" y="0.0" type="line" smooth="yes"/>
      <point x="666.0" y="0.0"/>
      <point x="680.0" y="60.0" type="qcurve" smooth="yes"/>
      <point x="791.0" y="542.0" type="line" smooth="yes"/>
      <point x="840.0" y="754.0"/>
      <point x="792.0" y="874.0"/>
      <point x="709.0" y="874.0" type="qcurve" smooth="yes"/>
      <point x="604.0" y="874.0"/>
      <point x="442.0" y="640.0"/>
      <point x="393.0" y="424.0" type="qcurve" smooth="yes"/>
      <point x="310.0" y="60.0" type="line" smooth="yes"/>
      <point x="296.0" y="0.0"/>
      <point x="236.0" y="0.0" type="qcurve" smooth="yes"/>
    </contour>
  </outline>
</glyph>
<glyph name="v" format="2">
  <advance width="1008"/>
  <unicode hex="0076"/>
  <outline>
    <contour>
      <point x="146.0" y="972.0" type="line" smooth="yes"/>
      <point x="139.0" y="1050.0"/>
      <point x="197.0" y="1050.0" type="qcurve" smooth="yes"/>
      <point x="358.0" y="1050.0" type="line" smooth="yes"/>
      <point x="405.0" y="1050.0"/>
      <point x="407.0" y="999.0" type="qcurve" smooth="yes"/>
      <point x="426.0" y="413.0" type="line" smooth="yes"/>
      <point x="428.0" y="364.0"/>
      <point x="423.0" y="268.0"/>
      <point x="418.0" y="238.0" type="qcurve"/>
      <point x="424.0" y="238.0" type="line"/>
      <point x="433.0" y="268.0"/>
      <point x="472.0" y="364.0"/>
      <point x="496.0" y="413.0" type="qcurve" smooth="yes"/>
      <point x="787.0" y="999.0" type="line" smooth="yes"/>
      <point x="812.0" y="1050.0"/>
      <point x="858.0" y="1050.0" type="qcurve" smooth="yes"/>
      <point x="1055.0" y="1050.0" type="line" smooth="yes"/>
      <point x="1113.0" y="1050.0"/>
      <point x="1070.0" y="972.0" type="qcurve" smooth="yes"/>
      <point x="571.0" y="67.0" type="line" smooth="yes"/>
      <point x="534.0" y="0.0"/>
      <point x="483.0" y="0.0" type="qcurve" smooth="yes"/>
      <point x="285.0" y="0.0" type="line" smooth="yes"/>
      <point x="233.0" y="0.0"/>
      <point x="227.0" y="67.0" type="qcurve" smooth="yes"/>
    </contour>
  </outline>
</glyph>
<glyph name="y" format="2">
  <advance width="1194"/>
  <unicode hex="0079"/>
  <outline>
    <contour>
      <point x="117.0" y="445.0" type="qcurve" smooth="yes"/>
      <point x="243.0" y="990.0" type="line" smooth="yes"/>
      <point x="257.0" y="1050.0"/>
      <point x="316.0" y="1050.0" type="qcurve" smooth="yes"/>
      <point x="476.0" y="1050.0" type="line" smooth="yes"/>
      <point x="537.0" y="1050.0"/>
      <point x="523.0" y="990.0" type="qcurve" smooth="yes"/>
      <point x="411.0" y="508.0" type="line" smooth="yes"/>
      <point x="364.0" y="305.0"/>
      <point x="413.0" y="185.0"/>
      <point x="493.0" y="185.0" type="qcurve" smooth="yes"/>
      <point x="594.0" y="185.0"/>
      <point x="758.0" y="424.0"/>
      <point x="806.0" y="635.0" type="qcurve" smooth="yes"/>
      <point x="887.0" y="990.0" type="line" smooth="yes"/>
      <point x="901.0" y="1050.0"/>
      <point x="960.0" y="1050.0" type="qcurve" smooth="yes"/>
      <point x="1120.0" y="1050.0" type="line" smooth="yes"/>
      <point x="1181.0" y="1050.0"/>
      <point x="1167.0" y="990.0" type="qcurve" smooth="yes"/>
      <point x="939.0" y="11.0" type="line" smooth="yes"/>
      <point x="886.0" y="-218.0"/>
      <point x="603.0" y="-420.0"/>
      <point x="342.0" y="-420.0" type="qcurve" smooth="yes"/>
      <point x="279.0" y="-420.0"/>
      <point x="114.0" y="-399.0"/>
      <point x="36.0" y="-357.0" type="qcurve" smooth="yes"/>
      <point x="-17.0" y="-329.0"/>
      <point x="20.0" y="-270.0" type="qcurve" smooth="yes"/>
      <point x="69.0" y="-192.0" type="line" smooth="yes"/>
      <point x="96.0" y="-148.0"/>
      <point x="142.0" y="-172.0" type="qcurve" smooth="yes"/>
      <point x="210.0" y="-207.0"/>
      <point x="306.0" y="-224.0"/>
      <point x="372.0" y="-224.0" type="qcurve" smooth="yes"/>
      <point x="477.0" y="-224.0"/>
      <point x="625.0" y="-135.0"/>
      <point x="674.0" y="76.0" type="qcurve" smooth="yes"/>
      <point x="684.0" y="120.0"/>
      <point x="697.0" y="156.0" type="qcurve"/>
      <point x="693.0" y="156.0" type="line"/>
      <point x="613.0" y="62.0"/>
      <point x="468.0" y="-11.0"/>
      <point x="368.0" y="-11.0" type="qcurve" smooth="yes"/>
      <point x="226.0" y="-11.0"/>
      <point x="61.0" y="203.0"/>
    </contour>
  </outline>
</glyph>
<glyph name="bar" format="2">
  <advance width="630"/>
  <unicode hex="007C"/>
  <outline>
    <contour>
      <point x="267.0" y="-440.0" type="line" smooth="yes"/>
      <point x="217.0" y="-440.0"/>
      <point x="217.0" y="-380.0" type="qcurve" smooth="yes"/>
      <point x="217.0" y="1436.0" type="line" smooth="yes"/>
      <point x="217.0" y="1496.0"/>
      <point x="267.0" y="1496.0" type="qcurve" smooth="yes"/>
      <point x="367.0" y="1496.0" type="line" smooth="yes"/>
      <point x="417.0" y="1496.0"/>
      <point x="417.0" y="1436.0" type="qcurve" smooth="yes"/>
      <point x="417.0" y="-380.0" type="line" smooth="yes"/>
      <point x="417.0" y="-440.0"/>
      <point x="367.0" y="-440.0" type="qcurve" smooth="yes"/>
    </contour>
  </outline>
</glyph>
<glyph name="asciitilde" format="2">
  <advance width="1280"/>
  <unicode hex="007E"/>
  <outline>
    <contour>
      <point x="147.0" y="634.0" type="line" smooth="yes"/>
      <point x="116.0" y="650.0"/>
      <point x="130.0" y="688.0" type="qcurve" smooth="yes"/>
      <point x="175.0" y="810.0"/>
      <point x="329.0" y="926.0"/>
      <point x="471.0" y="926.0" type="qcurve" smooth="yes"/>
      <point x="601.0" y="926.0"/>
      <point x="865.0" y="714.0"/>
      <point x="940.0" y="714.0" type="qcurve" smooth="yes"/>
      <point x="1015.0" y="714.0"/>
      <point x="1083.0" y="776.0"/>
      <point x="1109.0" y="822.0" type="qcurve" smooth="yes"/>
      <point x="1135.0" y="867.0"/>
      <point x="1161.0" y="852.0" type="qcurve" smooth="yes"/>
      <point x="1227.0" y="816.0" type="line" smooth="yes"/>
      <point x="1258.0" y="800.0"/>
      <point x="1244.0" y="762.0" type="qcurve" smooth="yes"/>
      <point x="1199.0" y="640.0"/>
      <point x="1045.0" y="524.0"/>
      <point x="903.0" y="524.0" type="qcurve" smooth="yes"/>
      <point x="773.0" y="524.0"/>
      <point x="509.0" y="736.0"/>
      <point x="434.0" y="736.0" type="qcurve" smooth="yes"/>
      <point x="359.0" y="736.0"/>
      <point x="291.0" y="674.0"/>
      <point x="265.0" y="628.0" type="qcurve" smooth="yes"/>
      <point x="239.0" y="583.0"/>
      <point x="213.0" y="598.0" type="qcurve" smooth="yes"/>
    </contour>
  </outline>
</glyph>
<glyph name="dieresis" format="2">
  <advance width="614"/>
  <unicode hex="00A8"/>
  <outline>
    <contour>
      <point x="194.0" y="1206.0" type="line" smooth="yes"/>
      <point x="134.0" y="1206.0"/>
      <point x="148.0" y="1266.0" type="qcurve" smooth="yes"/>
      <point x="175.0" y="1382.0" type="line" smooth="yes"/>
      <point x="189.0" y="1442.0"/>
      <point x="249.0" y="1442.0" type="qcurve" smooth="yes"/>
      <point x="365.0" y="1442.0" type="line" smooth="yes"/>
      <point x="425.0" y="1442.0"/>
      <point x="411.0" y="1382.0" type="qcurve" smooth="yes"/>
      <point x="384.0" y="1266.0" type="line" smooth="yes"/>
      <point x="370.0" y="1206.0"/>
      <point x="310.0" y="1206.0" type="qcurve" smooth="yes"/>
    </contour>
    <contour>
      <point x="620.0" y="1206.0" type="line" smooth="yes"/>
      <point x="560.0" y="1206.0"/>
      <point x="574.0" y="1266.0" type="qcurve" smooth="yes"/>
      <point x="601.0" y="1382.0" type="line" smooth="yes"/>
      <point x="615.0" y="1442.0"/>
      <point x="675.0" y="1442.0" type="qcurve" smooth="yes"/>
      <point x="791.0" y="1442.0" type="line" smooth="yes"/>
      <point x="851.0" y="1442.0"/>
      <point x="837.0" y="1382.0" type="qcurve" smooth="yes"/>
      <point x="810.0" y="1266.0" type="line" smooth="yes"/>
      <point x="796.0" y="1206.0"/>
      <point x="736.0" y="1206.0" type="qcurve" smooth="yes"/>
    </contour>
  </outline>
</glyph>
<glyph name="macron" format="2">
  <advance width="614"/>
  <unicode hex="00AF"/>
  <outline>
    <contour>
      <point x="201.0" y="1226.0" type="line" smooth="yes"/>
      <point x="141.0" y="1226.0"/>
      <point x="153.0" y="1276.0" type="qcurve" smooth="yes"/>
      <point x="168.0" y="1342.0" type="line" smooth="yes"/>
      <point x="180.0" y="1392.0"/>
      <point x="239.0" y="1392.0" type="qcurve" smooth="yes"/>
      <point x="777.0" y="1392.0" type="line" smooth="yes"/>
      <point x="837.0" y="1392.0"/>
      <point x="826.0" y="1342.0" type="qcurve" smooth="yes"/>
      <point x="811.0" y="1276.0" type="line" smooth="yes"/>
      <point x="799.0" y="1226.0"/>
      <point x="739.0" y="1226.0" type="qcurve" smooth="yes"/>
    </contour>
  </outline>
</glyph>
<glyph name="degree" format="2">
  <advance width="600"/>
  <unicode hex="00B0"/>
  <outline>
    <contour>
      <point x="242.0" y="1240.0" type="qcurve" smooth="yes"/>
      <point x="242.0" y="1333.0"/>
      <point x="373.0" y="1464.0"/>
      <point x="466.0" y="1464.0" type="qcurve" smooth="yes"/>
      <point x="559.0" y="1464.0"/>
      <point x="690.0" y="1333.0"/>
      <point x="690.0" y="1240.0" type="qcurve" smooth="yes"/>
      <point x="690.0" y="1147.0"/>
      <point x="559.0" y="1016.0"/>
      <point x="466.0" y="1016.0" type="qcurve" smooth="yes"/>
      <point x="373.0" y="1016.0"/>
      <point x="242.0" y="1147.0"/>
    </contour>
    <contour>
      <point x="382.0" y="1240.0" type="qcurve" smooth="yes"/>
      <point x="382.0" y="1204.0"/>
      <point x="430.0" y="1156.0"/>
      <point x="466.0" y="1156.0" type="qcurve" smooth="yes"/>
      <point x="502.0" y="1156.0"/>
      <point x="550.0" y="1204.0"/>
      <point x="550.0" y="1240.0" type="qcurve" smooth="yes"/>
      <point x="550.0" y="1276.0"/>
      <point x="502.0" y="1324.0"/>
      <point x="466.0" y="1324.0" type="qcurve" smooth="yes"/>
      <point x="430.0" y="1324.0"/>
      <point x="382.0" y="1276.0"/>
    </contour>
  </outline>
</glyph>
<glyph name="uni00B2" format="2">
  <advance width="630"/>
  <unicode hex="00B2"/>
  <outline>
    <contour>
      <point x="129.0" y="712.0" type="line" smooth="yes"/>
      <point x="89.0" y="712.0"/>
      <point x="98.0" y="746.0" type="qcurve" smooth="yes"/>
      <point x="107.0" y="782.0" type="line" smooth="yes"/>
      <point x="114.0" y="808.0"/>
      <point x="144.0" y="835.0" type="qcurve" smooth="yes"/>
      <point x="331.0" y="999.0" type="line" smooth="yes"/>
      <point x="448.0" y="1101.0"/>
      <point x="573.0" y="1206.0"/>
      <point x="573.0" y="1256.0" type="qcurve" smooth="yes"/>
      <point x="573.0" y="1302.0"/>
      <point x="530.0" y="1342.0"/>
      <point x="485.0" y="1342.0" type="qcurve" smooth="yes"/>
      <point x="430.0" y="1342.0"/>
      <point x="358.0" y="1280.0"/>
      <point x="342.0" y="1241.0" type="qcurve" smooth="yes"/>
      <point x="325.0" y="1200.0"/>
      <point x="284.0" y="1223.0" type="qcurve" smooth="yes"/>
      <point x="246.0" y="1244.0" type="line" smooth="yes"/>
      <point x="217.0" y="1260.0"/>
      <point x="232.0" y="1292.0" type="qcurve" smooth="yes"/>
      <point x="272.0" y="1374.0"/>
      <point x="408.0" y="1468.0"/>
      <point x="507.0" y="1468.0" type="qcurve" smooth="yes"/>
      <point x="612.0" y="1468.0"/>
      <point x="736.0" y="1364.0"/>
      <point x="736.0" y="1268.0" type="qcurve" smooth="yes"/>
      <point x="736.0" y="1178.0"/>
      <point x="480.0" y="970.0"/>
      <point x="452.0" y="946.0" type="qcurve" smooth="yes"/>
      <point x="341.0" y="853.0" type="line"/>
      <point x="341.0" y="850.0" type="line"/>
      <point x="372.0" y="852.0"/>
      <point x="394.0" y="852.0" type="qcurve" smooth="yes"/>
      <point x="615.0" y="852.0" type="line" smooth="yes"/>
      <point x="654.0" y="852.0"/>
      <point x="646.0" y="818.0" type="qcurve" smooth="yes"/>
      <point x="629.0" y="746.0" type="line" smooth="yes"/>
      <point x="621.0" y="712.0"/>
      <point x="582.0" y="712.0" type="qcurve" smooth="yes"/>
    </contour>
  </outline>
</glyph>
<glyph name="acute" format="2">
  <advance width="614"/>
  <unicode hex="00B4"/>
  <outline>
    <contour>
      <point x="319.0" y="1150.0" type="line" smooth="yes"/>
      <point x="269.0" y="1150.0"/>
      <point x="312.0" y="1209.0" type="qcurve" smooth="yes"/>
      <point x="441.0" y="1388.0" type="line" smooth="yes"/>
      <point x="475.0" y="1435.0"/>
      <point x="558.0" y="1435.0" type="qcurve" smooth="yes"/>
      <point x="710.0" y="1435.0" type="line" smooth="yes"/>
      <point x="773.0" y="1435.0"/>
      <point x="719.0" y="1376.0" type="qcurve" smooth="yes"/>
      <point x="546.0" y="1187.0" type="line" smooth="yes"/>
      <point x="512.0" y="1150.0"/>
      <point x="436.0" y="1150.0" type="qcurve" smooth="yes"/>
    </contour>
  </outline>
</glyph>
<glyph name="ae" format="2">
  <advance width="1752"/>
  <unicode hex="00E6"/>
  <outline>
    <contour>
      <point x="19.0" y="228.0" type="qcurve" smooth="yes"/>
      <point x="19.0" y="434.0"/>
      <point x="443.0" y="654.0"/>
      <point x="726.0" y="666.0" type="qcurve"/>
      <point x="735.0" y="706.0" type="line" smooth="yes"/>
      <point x="751.0" y="778.0"/>
      <point x="675.0" y="874.0"/>
      <point x="597.0" y="874.0" type="qcurve" smooth="yes"/>
      <point x="533.0" y="874.0"/>
      <point x="396.0" y="819.0"/>
      <point x="354.0" y="789.0" type="qcurve" smooth="yes"/>
      <point x="301.0" y="751.0"/>
      <point x="278.0" y="785.0" type="qcurve" smooth="yes"/>
      <point x="215.0" y="876.0" type="line" smooth="yes"/>
      <point x="184.0" y="921.0"/>
      <point x="230.0" y="954.0" type="qcurve" smooth="yes"/>
      <point x="288.0" y="996.0"/>
      <point x="486.0" y="1070.0"/>
      <point x="642.0" y="1070.0" type="qcurve" smooth="yes"/>
      <point x="726.0" y="1070.0"/>
      <point x="863.0" y="987.0"/>
      <point x="896.0" y="912.0" type="qcurve"/>
      <point x="899.0" y="912.0" type="line"/>
      <point x="993.0" y="999.0"/>
      <point x="1169.0" y="1070.0"/>
      <point x="1285.0" y="1070.0" type="qcurve" smooth="yes"/>
      <point x="1487.0" y="1070.0"/>
      <point x="1706.0" y="890.0"/>
      <point x="1706.0" y="774.0" type="qcurve" smooth="yes"/>
      <point x="1706.0" y="582.0"/>
      <point x="1556.0" y="520.0" type="qcurve" smooth="yes"/>
      <point x="1410.0" y="460.0"/>
      <point x="1173.0" y="418.0" type="qcurve" smooth="yes"/>
      <point x="969.0" y="382.0" type="line"/>
      <point x="968.0" y="369.0"/>
      <point x="968.0" y="354.0" type="qcurve" smooth="yes"/>
      <point x="968.0" y="290.0"/>
      <point x="1046.0" y="176.0"/>
      <point x="1159.0" y="176.0" type="qcurve" smooth="yes"/>
      <point x="1226.0" y="176.0"/>
      <point x="1378.0" y="231.0"/>
      <point x="1423.0" y="265.0" type="qcurve" smooth="yes"/>
      <point x="1475.0" y="304.0"/>
      <point x="1504.0" y="265.0" type="qcurve" smooth="yes"/>
      <point x="1563.0" y="187.0" type="line" smooth="yes"/>
      <point x="1599.0" y="140.0"/>
      <point x="1555.0" y="99.0" type="qcurve" smooth="yes"/>
      <point x="1490.0" y="39.0"/>
      <point x="1280.0" y="-20.0"/>
      <point x="1141.0" y="-20.0" type="qcurve" smooth="yes"/>
      <point x="1013.0" y="-20.0"/>
      <point x="789.0" y="66.0"/>
      <point x="734.0" y="168.0" type="qcurve"/>
      <point x="732.0" y="168.0" type="line"/>
      <point x="657.0" y="78.0"/>
      <point x="447.0" y="-20.0"/>
      <point x="314.0" y="-20.0" type="qcurve" smooth="yes"/>
      <point x="174.0" y="-20.0"/>
      <point x="19.0" y="102.0"/>
    </contour>
    <contour>
      <point x="315.0" y="256.0" type="qcurve" smooth="yes"/>
      <point x="315.0" y="211.0"/>
      <point x="365.0" y="176.0"/>
      <point x="415.0" y="176.0" type="qcurve" smooth="yes"/>
      <point x="464.0" y="176.0"/>
      <point x="607.0" y="240.0"/>
      <point x="682.0" y="298.0" type="qcurve"/>
      <point x="669.0" y="374.0"/>
      <point x="687.0" y="473.0" type="qcurve"/>
      <point x="506.0" y="465.0"/>
      <point x="315.0" y="330.0"/>
    </contour>
    <contour>
      <point x="982.0" y="570.0" type="qcurve"/>
      <point x="1196.0" y="606.0" type="line" smooth="yes"/>
      <point x="1297.0" y="623.0"/>
      <point x="1469.0" y="690.0"/>
      <point x="1469.0" y="751.0" type="qcurve" smooth="yes"/>
      <point x="1469.0" y="806.0"/>
      <point x="1361.0" y="874.0"/>
      <point x="1288.0" y="874.0" type="qcurve" smooth="yes"/>
      <point x="1175.0" y="874.0"/>
      <point x="1016.0" y="698.0"/>
    </contour>
  </outline>
</glyph>
<glyph name="eth" format="2">
  <advance width="1206"/>
  <unicode hex="00F0"/>
  <outline>
    <contour>
      <point x="58.0" y="394.0" type="qcurve" smooth="yes"/>
      <point x="58.0" y="599.0"/>
      <point x="351.0" y="1018.0"/>
      <point x="632.0" y="1018.0" type="qcurve" smooth="yes"/>
      <point x="706.0" y="1018.0"/>
      <point x="885.0" y="942.0"/>
      <point x="926.0" y="864.0" type="qcurve"/>
      <point x="930.0" y="864.0" type="line"/>
      <point x="903.0" y="996.0"/>
      <point x="724.0" y="1158.0"/>
      <point x="681.0" y="1191.0" type="qcurve"/>
      <point x="540.0" y="1126.0" type="line" smooth="yes"/>
      <point x="486.0" y="1101.0"/>
      <point x="466.0" y="1145.0" type="qcurve" smooth="yes"/>
      <point x="434.0" y="1213.0" type="line" smooth="yes"/>
      <point x="412.0" y="1260.0"/>
      <point x="467.0" y="1284.0" type="qcurve" smooth="yes"/>
      <point x="512.0" y="1305.0" type="line"/>
      <point x="501.0" y="1311.0"/>
      <point x="489.0" y="1317.0" type="qcurve" smooth="yes"/>
      <point x="425.0" y="1351.0"/>
      <point x="458.0" y="1396.0" type="qcurve" smooth="yes"/>
      <point x="515.0" y="1474.0" type="line" smooth="yes"/>
      <point x="544.0" y="1514.0"/>
      <point x="596.0" y="1490.0" type="qcurve" smooth="yes"/>
      <point x="674.0" y="1454.0"/>
      <point x="741.0" y="1411.0" type="qcurve"/>
      <point x="858.0" y="1465.0" type="line" smooth="yes"/>
      <point x="912.0" y="1490.0"/>
      <point x="932.0" y="1446.0" type="qcurve" smooth="yes"/>
      <point x="964.0" y="1378.0" type="line" smooth="yes"/>
      <point x="986.0" y="1331.0"/>
      <point x="931.0" y="1307.0" type="qcurve" smooth="yes"/>
      <point x="896.0" y="1291.0" type="line"/>
      <point x="966.0" y="1224.0"/>
      <point x="1151.0" y="930.0"/>
      <point x="1151.0" y="669.0" type="qcurve" smooth="yes"/>
      <point x="1151.0" y="390.0"/>
      <point x="816.0" y="-20.0"/>
      <point x="518.0" y="-20.0" type="qcurve" smooth="yes"/>
      <point x="276.0" y="-20.0"/>
      <point x="58.0" y="231.0"/>
    </contour>
    <contour>
      <point x="354.0" y="387.0" type="qcurve" smooth="yes"/>
      <point x="354.0" y="273.0"/>
      <point x="451.0" y="176.0"/>
      <point x="536.0" y="176.0" type="qcurve" smooth="yes"/>
      <point x="661.0" y="176.0"/>
      <point x="854.0" y="438.0"/>
      <point x="854.0" y="647.0" type="qcurve" smooth="yes"/>
      <point x="854.0" y="741.0"/>
      <point x="732.0" y="822.0"/>
      <point x="662.0" y="822.0" type="qcurve" smooth="yes"/>
      <point x="537.0" y="822.0"/>
      <point x="354.0" y="570.0"/>
    </contour>
  </outline>
</glyph>
<glyph name="uni0268" format="2">
  <advance width="728"/>
  <unicode hex="0268"/>
  <outline>
    <contour>
      <point x="90.0" y="448.0" type="line" smooth="yes"/>
      <point x="30.0" y="448.0"/>
      <point x="42.0" y="498.0" type="qcurve" smooth="yes"/>
      <point x="65.0" y="598.0" type="line" smooth="yes"/>
      <point x="77.0" y="648.0"/>
      <point x="137.0" y="648.0" type="qcurve" smooth="yes"/>
      <point x="254.0" y="648.0" type="line"/>
      <point x="333.0" y="990.0" type="line" smooth="yes"/>
      <point x="347.0" y="1050.0"/>
      <point x="406.0" y="1050.0" type="qcurve" smooth="yes"/>
      <point x="566.0" y="1050.0" type="line" smooth="yes"/>
      <point x="626.0" y="1050.0"/>
      <point x="613.0" y="990.0" type="qcurve" smooth="yes"/>
      <point x="534.0" y="648.0" type="line"/>
      <point x="651.0" y="648.0" type="line" smooth="yes"/>
      <point x="711.0" y="648.0"/>
      <point x="699.0" y="598.0" type="qcurve" smooth="yes"/>
      <point x="676.0" y="498.0" type="line" smooth="yes"/>
      <point x="664.0" y="448.0"/>
      <point x="604.0" y="448.0" type="qcurve" smooth="yes"/>
      <point x="487.0" y="448.0" type="line"/>
      <point x="398.0" y="60.0" type="line" smooth="yes"/>
      <point x="384.0" y="0.0"/>
      <point x="324.0" y="0.0" type="qcurve" smooth="yes"/>
      <point x="164.0" y="0.0" type="line" smooth="yes"/>
      <point x="104.0" y="0.0"/>
      <point x="118.0" y="60.0" type="qcurve" smooth="yes"/>
      <point x="207.0" y="448.0" type="line"/>
    </contour>
    <contour>
      <point x="442.0" y="1204.0" type="line" smooth="yes"/>
      <point x="382.0" y="1204.0"/>
      <point x="396.0" y="1264.0" type="qcurve" smooth="yes"/>
      <point x="425.0" y="1392.0" type="line" smooth="yes"/>
      <point x="439.0" y="1452.0"/>
      <point x="499.0" y="1452.0" type="qcurve" smooth="yes"/>
      <point x="659.0" y="1452.0" type="line" smooth="yes"/>
      <point x="719.0" y="1452.0"/>
      <point x="705.0" y="1392.0" type="qcurve" smooth="yes"/>
      <point x="676.0" y="1264.0" type="line" smooth="yes"/>
      <point x="662.0" y="1204.0"/>
      <point x="602.0" y="1204.0" type="qcurve" smooth="yes"/>
    </contour>
  </outline>
</glyph>
<glyph name="uni0271" format="2">
  <advance width="1750"/>
  <unicode hex="0271"/>
  <outline>
    <contour>
      <point x="76.0" y="0.0" type="line" smooth="yes"/>
      <point x="16.0" y="0.0"/>
      <point x="30.0" y="60.0" type="qcurve" smooth="yes"/>
      <point x="245.0" y="990.0" type="line" smooth="yes"/>
      <point x="259.0" y="1050.0"/>
      <point x="318.0" y="1050.0" type="qcurve" smooth="yes"/>
      <point x="476.0" y="1050.0" type="line" smooth="yes"/>
      <point x="536.0" y="1050.0"/>
      <point x="523.0" y="990.0" type="qcurve" smooth="yes"/>
      <point x="502.0" y="900.0" type="line"/>
      <point x="506.0" y="900.0" type="line"/>
      <point x="552.0" y="969.0"/>
      <point x="696.0" y="1070.0"/>
      <point x="772.0" y="1070.0" type="qcurve" smooth="yes"/>
      <point x="897.0" y="1070.0"/>
      <point x="1006.0" y="927.0"/>
      <point x="1006.0" y="839.0" type="qcurve"/>
      <point x="1010.0" y="839.0" type="line"/>
      <point x="1083.0" y="951.0"/>
      <point x="1263.0" y="1070.0"/>
      <point x="1392.0" y="1070.0" type="qcurve" smooth="yes"/>
      <point x="1527.0" y="1070.0"/>
      <point x="1695.0" y="858.0"/>
      <point x="1635.0" y="600.0" type="qcurve" smooth="yes"/>
      <point x="1495.0" y="-4.0" type="line" smooth="yes"/>
      <point x="1438.0" y="-252.0"/>
      <point x="1216.0" y="-420.0"/>
      <point x="1045.0" y="-420.0" type="qcurve" smooth="yes"/>
      <point x="955.0" y="-420.0"/>
      <point x="904.0" y="-405.0" type="qcurve" smooth="yes"/>
      <point x="867.0" y="-394.0"/>
      <point x="883.0" y="-349.0" type="qcurve" smooth="yes"/>
      <point x="920.0" y="-243.0" type="line" smooth="yes"/>
      <point x="932.0" y="-208.0"/>
      <point x="974.0" y="-215.0" type="qcurve" smooth="yes"/>
      <point x="1023.0" y="-224.0"/>
      <point x="1041.0" y="-224.0" type="qcurve" smooth="yes"/>
      <point x="1114.0" y="-224.0"/>
      <point x="1194.0" y="-94.0"/>
      <point x="1222.0" y="26.0" type="qcurve" smooth="yes"/>
      <point x="1336.0" y="520.0" type="line" smooth="yes"/>
      <point x="1379.0" y="708.0"/>
      <point x="1359.0" y="874.0"/>
      <point x="1284.0" y="874.0" type="qcurve" smooth="yes"/>
      <point x="1214.0" y="874.0"/>
      <point x="1060.0" y="711.0"/>
      <point x="991.0" y="412.0" type="qcurve" smooth="yes"/>
      <point x="910.0" y="60.0" type="line" smooth="yes"/>
      <point x="896.0" y="0.0"/>
      <point x="836.0" y="0.0" type="qcurve" smooth="yes"/>
      <point x="676.0" y="0.0" type="line" smooth="yes"/>
      <point x="616.0" y="0.0"/>
      <point x="630.0" y="60.0" type="qcurve" smooth="yes"/>
      <point x="731.0" y="500.0" type="line" smooth="yes"/>
      <point x="778.0" y="705.0"/>
      <point x="759.0" y="874.0"/>
      <point x="684.0" y="874.0" type="qcurve" smooth="yes"/>
      <point x="615.0" y="874.0"/>
      <point x="447.0" y="654.0"/>
      <point x="391.0" y="412.0" type="qcurve" smooth="yes"/>
      <point x="310.0" y="60.0" type="line" smooth="yes"/>
      <point x="296.0" y="0.0"/>
      <point x="236.0" y="0.0" type="qcurve" smooth="yes"/>
    </contour>
  </outline>
</glyph>
<glyph name="circumflex" format="2">
  <advance width="614"/>
  <unicode hex="02C6"/>
  <outline>
    <contour>
      <point x="145.0" y="1191.0" type="line" smooth="yes"/>
      <point x="121.0" y="1229.0"/>
      <point x="183.0" y="1267.0" type="qcurve" smooth="yes"/>
      <point x="415.0" y="1407.0" type="line" smooth="yes"/>
      <point x="460.0" y="1434.0"/>
      <point x="491.0" y="1434.0" type="qcurve" smooth="yes"/>
      <point x="528.0" y="1434.0" type="line" smooth="yes"/>
      <point x="558.0" y="1434.0"/>
      <point x="590.0" y="1407.0" type="qcurve" smooth="yes"/>
      <point x="769.0" y="1254.0" type="line" smooth="yes"/>
      <point x="812.0" y="1217.0"/>
      <point x="773.0" y="1178.0" type="qcurve" smooth="yes"/>
      <point x="751.0" y="1156.0" type="line" smooth="yes"/>
      <point x="711.0" y="1116.0"/>
      <point x="672.0" y="1150.0" type="qcurve" smooth="yes"/>
      <point x="502.0" y="1295.0" type="line"/>
      <point x="500.0" y="1295.0" type="line"/>
      <point x="250.0" y="1141.0" type="line" smooth="yes"/>
      <point x="197.0" y="1109.0"/>
      <point x="173.0" y="1147.0" type="qcurve" smooth="yes"/>
    </contour>
  </outline>
</glyph>
<glyph name="caron" format="2">
  <advance width="614"/>
  <unicode hex="02C7"/>
  <outline>
    <contour>
      <point x="199.0" y="1318.0" type="line" smooth="yes"/>
      <point x="156.0" y="1355.0"/>
      <point x="195.0" y="1394.0" type="qcurve" smooth="yes"/>
      <point x="217.0" y="1416.0" type="line" smooth="yes"/>
      <point x="257.0" y="1456.0"/>
      <point x="296.0" y="1422.0" type="qcurve" smooth="yes"/>
      <point x="466.0" y="1277.0" type="line"/>
      <point x="468.0" y="1277.0" type="line"/>
      <point x="718.0" y="1431.0" type="line" smooth="yes"/>
      <point x="771.0" y="1463.0"/>
      <point x="795.0" y="1425.0" type="qcurve" smooth="yes"/>
      <point x="823.0" y="1381.0" type="line" smooth="yes"/>
      <point x="847.0" y="1343.0"/>
      <point x="785.0" y="1305.0" type="qcurve" smooth="yes"/>
      <point x="553.0" y="1165.0" type="line" smooth="yes"/>
      <point x="508.0" y="1138.0"/>
      <point x="477.0" y="1138.0" type="qcurve" smooth="yes"/>
      <point x="440.0" y="1138.0" type="line" smooth="yes"/>
      <point x="410.0" y="1138.0"/>
      <point x="378.0" y="1165.0" type="qcurve" smooth="yes"/>
    </contour>
  </outline>
</glyph>
<glyph name="breve" format="2">
  <advance width="614"/>
  <unicode hex="02D8"/>
  <outline>
    <contour>
      <point x="171.0" y="1365.0" type="qcurve" smooth="yes"/>
      <point x="160.0" y="1412.0"/>
      <point x="195.0" y="1425.0" type="qcurve" smooth="yes"/>
      <point x="256.0" y="1447.0" type="line" smooth="yes"/>
      <point x="295.0" y="1461.0"/>
      <point x="307.0" y="1426.0" type="qcurve" smooth="yes"/>
      <point x="330.0" y="1358.0"/>
      <point x="408.0" y="1298.0"/>
      <point x="487.0" y="1298.0" type="qcurve" smooth="yes"/>
      <point x="554.0" y="1298.0"/>
      <point x="668.0" y="1372.0"/>
      <point x="705.0" y="1425.0" type="qcurve" smooth="yes"/>
      <point x="734.0" y="1466.0"/>
      <point x="766.0" y="1446.0" type="qcurve" smooth="yes"/>
      <point x="838.0" y="1402.0" type="line" smooth="yes"/>
      <point x="865.0" y="1385.0"/>
      <point x="834.0" y="1342.0" type="qcurve" smooth="yes"/>
      <point x="754.0" y="1232.0"/>
      <point x="580.0" y="1130.0"/>
      <point x="456.0" y="1130.0" type="qcurve" smooth="yes"/>
      <point x="348.0" y="1130.0"/>
      <point x="198.0" y="1248.0"/>
    </contour>
  </outline>
</glyph>
<glyph name="pi" format="2">
  <advance width="1402"/>
  <unicode hex="03C0"/>
  <outline>
    <contour>
      <point x="105.0" y="942.0" type="line" smooth="yes"/>
      <point x="96.0" y="970.0"/>
      <point x="134.0" y="991.0" type="qcurve" smooth="yes"/>
      <point x="178.0" y="1015.0"/>
      <point x="340.0" y="1050.0"/>
      <point x="436.0" y="1050.0" type="qcurve" smooth="yes"/>
      <point x="1418.0" y="1050.0" type="line" smooth="yes"/>
      <point x="1478.0" y="1050.0"/>
      <point x="1466.0" y="1000.0" type="qcurve" smooth="yes"/>
      <point x="1443.0" y="900.0" type="line" smooth="yes"/>
      <point x="1431.0" y="850.0"/>
      <point x="1372.0" y="850.0" type="qcurve" smooth="yes"/>
      <point x="1231.0" y="850.0" type="line"/>
      <point x="1098.0" y="275.0" type="line" smooth="yes"/>
      <point x="1085.0" y="221.0"/>
      <point x="1100.0" y="176.0"/>
      <point x="1128.0" y="176.0" type="qcurve" smooth="yes"/>
      <point x="1153.0" y="176.0"/>
      <point x="1187.0" y="188.0" type="qcurve" smooth="yes"/>
      <point x="1223.0" y="201.0"/>
      <point x="1226.0" y="163.0" type="qcurve" smooth="yes"/>
      <point x="1234.0" y="44.0" type="line" smooth="yes"/>
      <point x="1236.0" y="10.0"/>
      <point x="1203.0" y="1.0" type="qcurve" smooth="yes"/>
      <point x="1126.0" y="-20.0"/>
      <point x="1048.0" y="-20.0" type="qcurve" smooth="yes"/>
      <point x="912.0" y="-20.0"/>
      <point x="790.0" y="147.0"/>
      <point x="824.0" y="294.0" type="qcurve" smooth="yes"/>
      <point x="951.0" y="850.0" type="line"/>
      <point x="626.0" y="850.0" type="line"/>
      <point x="444.0" y="60.0" type="line" smooth="yes"/>
      <point x="430.0" y="0.0"/>
      <point x="370.0" y="0.0" type="qcurve" smooth="yes"/>
      <point x="210.0" y="0.0" type="line" smooth="yes"/>
      <point x="150.0" y="0.0"/>
      <point x="164.0" y="60.0" type="qcurve" smooth="yes"/>
      <point x="346.0" y="850.0" type="line"/>
      <point x="310.0" y="850.0"/>
      <point x="232.0" y="830.0"/>
      <point x="200.0" y="816.0" type="qcurve" smooth="yes"/>
      <point x="149.0" y="793.0"/>
      <point x="139.0" y="826.0" type="qcurve" smooth="yes"/>
    </contour>
  </outline>
</glyph>
<glyph name="afii10053" format="2">
  <advance width="1410"/>
  <unicode hex="0404"/>
  <outline>
    <contour>
      <point x="100.0" y="588.0" type="qcurve" smooth="yes"/>
      <point x="100.0" y="936.0"/>
      <point x="504.0" y="1468.0"/>
      <point x="892.0" y="1468.0" type="qcurve" smooth="yes"/>
      <point x="1059.0" y="1468.0"/>
      <point x="1314.0" y="1352.0"/>
      <point x="1370.0" y="1260.0" type="qcurve" smooth="yes"/>
      <point x="1410.0" y="1194.0"/>
      <point x="1353.0" y="1156.0" type="qcurve" smooth="yes"/>
      <point x="1229.0" y="1073.0" type="line" smooth="yes"/>
      <point x="1183.0" y="1042.0"/>
      <point x="1133.0" y="1109.0" type="qcurve" smooth="yes"/>
      <point x="1083.0" y="1175.0"/>
      <point x="940.0" y="1232.0"/>
      <point x="871.0" y="1232.0" type="qcurve" smooth="yes"/>
      <point x="705.0" y="1232.0"/>
      <point x="488.0" y="1005.0"/>
      <point x="457.0" y="870.0" type="qcurve"/>
      <point x="999.0" y="870.0" type="line" smooth="yes"/>
      <point x="1074.0" y="870.0"/>
      <point x="1059.0" y="805.0" type="qcurve" smooth="yes"/>
      <point x="1032.0" y="687.0" type="line" smooth="yes"/>
      <point x="1017.0" y="622.0"/>
      <point x="942.0" y="622.0" type="qcurve" smooth="yes"/>
      <point x="414.0" y="622.0" type="line"/>
      <point x="412.0" y="587.0"/>
      <point x="412.0" y="550.0" type="qcurve" smooth="yes"/>
      <point x="412.0" y="399.0"/>
      <point x="568.0" y="202.0"/>
      <point x="757.0" y="202.0" type="qcurve" smooth="yes"/>
      <point x="852.0" y="202.0"/>
      <point x="999.0" y="276.0"/>
      <point x="1041.0" y="333.0" type="qcurve" smooth="yes"/>
      <point x="1094.0" y="406.0"/>
      <point x="1141.0" y="380.0" type="qcurve" smooth="yes"/>
      <point x="1268.0" y="310.0" type="line" smooth="yes"/>
      <point x="1330.0" y="276.0"/>
      <point x="1286.0" y="212.0" type="qcurve" smooth="yes"/>
      <point x="1210.0" y="102.0"/>
      <point x="924.0" y="-34.0"/>
      <point x="736.0" y="-34.0" type="qcurve" smooth="yes"/>
      <point x="436.0" y="-34.0"/>
      <point x="100.0" y="273.0"/>
    </contour>
  </outline>
</glyph>
<glyph name="afii10058" format="2">
  <advance width="2220"/>
  <unicode hex="0409"/>
  <outline>
    <contour>
      <point x="-44.0" y="-10.0" type="qcurve" smooth="yes"/>
      <point x="-77.0" y="2.0"/>
      <point x="-59.0" y="58.0" type="qcurve" smooth="yes"/>
      <point x="-23.0" y="172.0" type="line" smooth="yes"/>
      <point x="-6.0" y="227.0"/>
      <point x="48.0" y="210.0" type="qcurve" smooth="yes"/>
      <point x="74.0" y="202.0"/>
      <point x="115.0" y="202.0" type="qcurve" smooth="yes"/>
      <point x="276.0" y="202.0"/>
      <point x="477.0" y="619.0"/>
      <point x="586.0" y="1090.0" type="qcurve" smooth="yes"/>
      <point x="648.0" y="1359.0" type="line" smooth="yes"/>
      <point x="665.0" y="1434.0"/>
      <point x="735.0" y="1434.0" type="qcurve" smooth="yes"/>
      <point x="1463.0" y="1434.0" type="line" smooth="yes"/>
      <point x="1533.0" y="1434.0"/>
      <point x="1516.0" y="1359.0" type="qcurve" smooth="yes"/>
      <point x="1403.0" y="870.0" type="line"/>
      <point x="1538.0" y="870.0" type="line" smooth="yes"/>
      <point x="1870.0" y="870.0"/>
      <point x="2105.0" y="640.0"/>
      <point x="2105.0" y="474.0" type="qcurve" smooth="yes"/>
      <point x="2105.0" y="267.0"/>
      <point x="1742.0" y="0.0"/>
      <point x="1377.0" y="0.0" type="qcurve" smooth="yes"/>
      <point x="980.0" y="0.0" type="line" smooth="yes"/>
      <point x="910.0" y="0.0"/>
      <point x="927.0" y="75.0" type="qcurve" smooth="yes"/>
      <point x="1184.0" y="1186.0" type="line"/>
      <point x="858.0" y="1186.0" type="line"/>
      <point x="823.0" y="1034.0" type="line" smooth="yes"/>
      <point x="686.0" y="434.0"/>
      <point x="378.0" y="-34.0"/>
      <point x="78.0" y="-34.0" type="qcurve" smooth="yes"/>
      <point x="24.0" y="-34.0"/>
    </contour>
    <contour>
      <point x="1258.0" y="244.0" type="line"/>
      <point x="1404.0" y="244.0" type="line" smooth="yes"/>
      <point x="1594.0" y="244.0"/>
      <point x="1793.0" y="332.0"/>
      <point x="1793.0" y="457.0" type="qcurve" smooth="yes"/>
      <point x="1793.0" y="555.0"/>
      <point x="1662.0" y="626.0"/>
      <point x="1453.0" y="626.0" type="qcurve" smooth="yes"/>
      <point x="1347.0" y="626.0" type="line"/>
    </contour>
  </outline>
</glyph>
<glyph name="afii10025" format="2">
  <advance width="1354"/>
  <unicode hex="0417"/>
  <outline>
    <contour>
      <point x="87.0" y="156.0" type="qcurve" smooth="yes"/>
      <point x="38.0" y="220.0"/>
      <point x="78.0" y="255.0" type="qcurve" smooth="yes"/>
      <point x="181.0" y="344.0" type="line" smooth="yes"/>
      <point x="233.0" y="389.0"/>
      <point x="291.0" y="327.0" type="qcurve" smooth="yes"/>
      <point x="339.0" y="276.0"/>
      <point x="474.0" y="202.0"/>
      <point x="602.0" y="202.0" type="qcurve" smooth="yes"/>
      <point x="699.0" y="202.0"/>
      <point x="916.0" y="306.0"/>
      <point x="916.0" y="418.0" type="qcurve" smooth="yes"/>
      <point x="916.0" y="516.0"/>
      <point x="762.0" y="636.0"/>
      <point x="639.0" y="636.0" type="qcurve" smooth="yes"/>
      <point x="473.0" y="636.0" type="line" smooth="yes"/>
      <point x="397.0" y="636.0"/>
      <point x="412.0" y="699.0" type="qcurve" smooth="yes"/>
      <point x="437.0" y="807.0" type="line" smooth="yes"/>
      <point x="452.0" y="872.0"/>
      <point x="527.0" y="872.0" type="qcurve" smooth="yes"/>
      <point x="651.0" y="872.0" type="line" smooth="yes"/>
      <point x="840.0" y="872.0"/>
      <point x="975.0" y="999.0"/>
      <point x="975.0" y="1077.0" type="qcurve" smooth="yes"/>
      <point x="975.0" y="1167.0"/>
      <point x="818.0" y="1232.0"/>
      <point x="682.0" y="1232.0" type="qcurve" smooth="yes"/>
      <point x="597.0" y="1232.0"/>
      <point x="447.0" y="1161.0"/>
      <point x="408.0" y="1125.0" type="qcurve" smooth="yes"/>
      <point x="347.0" y="1070.0"/>
      <point x="297.0" y="1116.0" type="qcurve" smooth="yes"/>
      <point x="210.0" y="1197.0" type="line" smooth="yes"/>
      <point x="159.0" y="1245.0"/>
      <point x="223.0" y="1297.0" type="qcurve" smooth="yes"/>
      <point x="330.0" y="1385.0"/>
      <point x="564.0" y="1468.0"/>
      <point x="702.0" y="1468.0" type="qcurve" smooth="yes"/>
      <point x="987.0" y="1468.0"/>
      <point x="1271.0" y="1245.0"/>
      <point x="1271.0" y="1104.0" type="qcurve" smooth="yes"/>
      <point x="1271.0" y="954.0"/>
      <point x="1089.0" y="777.0"/>
      <point x="934.0" y="752.0" type="qcurve"/>
      <point x="933.0" y="748.0" type="line"/>
      <point x="1068.0" y="717.0"/>
      <point x="1228.0" y="537.0"/>
      <point x="1228.0" y="427.0" type="qcurve" smooth="yes"/>
      <point x="1228.0" y="243.0"/>
      <point x="858.0" y="-34.0"/>
      <point x="597.0" y="-34.0" type="qcurve" smooth="yes"/>
      <point x="369.0" y="-34.0"/>
      <point x="156.0" y="66.0"/>
    </contour>
  </outline>
</glyph>
<glyph name="afii10066" format="2">
  <advance width="1214"/>
  <unicode hex="0431"/>
  <outline>
    <contour>
      <point x="62.0" y="412.0" type="qcurve" smooth="yes"/>
      <point x="62.0" y="663.0"/>
      <point x="181.0" y="1012.0"/>
      <point x="267.0" y="1140.0"/>
      <point x="434.0" y="1325.0"/>
      <point x="640.0" y="1419.0"/>
      <point x="685.0" y="1426.0" type="qcurve" smooth="yes"/>
      <point x="782.0" y="1440.0"/>
      <point x="936.0" y="1453.0"/>
      <point x="1003.0" y="1464.0" type="qcurve" smooth="yes"/>
      <point x="1082.0" y="1478.0"/>
      <point x="1106.0" y="1514.0"/>
      <point x="1140.0" y="1514.0" type="qcurve" smooth="yes"/>
      <point x="1215.0" y="1514.0" type="line" smooth="yes"/>
      <point x="1251.0" y="1514.0"/>
      <point x="1243.0" y="1469.0" type="qcurve" smooth="yes"/>
      <point x="1229.0" y="1390.0"/>
      <point x="1134.0" y="1294.0"/>
      <point x="1045.0" y="1272.0" type="qcurve" smooth="yes"/>
      <point x="997.0" y="1260.0"/>
      <point x="864.0" y="1248.0"/>
      <point x="667.0" y="1217.0"/>
      <point x="573.0" y="1186.0" type="qcurve" smooth="yes"/>
      <point x="390.0" y="1124.0"/>
      <point x="307.0" y="845.0" type="qcurve"/>
      <point x="314.0" y="841.0" type="line"/>
      <point x="351.0" y="915.0"/>
      <point x="583.0" y="1070.0"/>
      <point x="716.0" y="1070.0" type="qcurve" smooth="yes"/>
      <point x="970.0" y="1070.0"/>
      <point x="1154.0" y="813.0"/>
      <point x="1154.0" y="638.0" type="qcurve" smooth="yes"/>
      <point x="1154.0" y="413.0"/>
      <point x="826.0" y="-20.0"/>
      <point x="522.0" y="-20.0" type="qcurve" smooth="yes"/>
      <point x="250.0" y="-20.0"/>
      <point x="62.0" y="237.0"/>
    </contour>
    <contour>
      <point x="358.0" y="387.0" type="qcurve" smooth="yes"/>
      <point x="358.0" y="287.0"/>
      <point x="455.0" y="176.0"/>
      <point x="540.0" y="176.0" type="qcurve" smooth="yes"/>
      <point x="665.0" y="176.0"/>
      <point x="858.0" y="433.0"/>
      <point x="858.0" y="663.0" type="qcurve" smooth="yes"/>
      <point x="858.0" y="763.0"/>
      <point x="760.0" y="874.0"/>
      <point x="680.0" y="874.0" type="qcurve" smooth="yes"/>
      <point x="562.0" y="874.0"/>
      <point x="358.0" y="612.0"/>
    </contour>
  </outline>
</glyph>
<glyph name="afii10067" format="2">
  <advance width="1120"/>
  <unicode hex="0432"/>
  <outline>
    <contour>
      <point x="58.0" y="404.0" type="qcurve" smooth="yes"/>
      <point x="58.0" y="632.0"/>
      <point x="376.0" y="1070.0"/>
      <point x="672.0" y="1070.0" type="qcurve" smooth="yes"/>
      <point x="842.0" y="1070.0"/>
      <point x="1050.0" y="944.0"/>
      <point x="1050.0" y="834.0" type="qcurve" smooth="yes"/>
      <point x="1050.0" y="728.0"/>
      <point x="920.0" y="612.0"/>
      <point x="770.0" y="568.0" type="qcurve"/>
      <point x="770.0" y="566.0" type="line"/>
      <point x="880.0" y="554.0"/>
      <point x="990.0" y="394.0"/>
      <point x="990.0" y="324.0" type="qcurve" smooth="yes"/>
      <point x="990.0" y="146.0"/>
      <point x="726.0" y="-20.0"/>
      <point x="482.0" y="-20.0" type="qcurve" smooth="yes"/>
      <point x="288.0" y="-20.0"/>
      <point x="58.0" y="206.0"/>
    </contour>
    <contour>
      <point x="355.0" y="356.0" type="qcurve" smooth="yes"/>
      <point x="355.0" y="284.0"/>
      <point x="428.0" y="176.0"/>
      <point x="524.0" y="176.0" type="qcurve" smooth="yes"/>
      <point x="614.0" y="176.0"/>
      <point x="694.0" y="252.0"/>
      <point x="694.0" y="320.0" type="qcurve" smooth="yes"/>
      <point x="694.0" y="398.0"/>
      <point x="606.0" y="454.0"/>
      <point x="532.0" y="454.0" type="qcurve" smooth="yes"/>
      <point x="488.0" y="454.0"/>
      <point x="404.0" y="432.0"/>
      <point x="361.0" y="422.0" type="qcurve"/>
      <point x="355.0" y="384.0"/>
    </contour>
    <contour>
      <point x="382.0" y="614.0" type="qcurve"/>
      <point x="612.0" y="666.0"/>
      <point x="776.0" y="728.0"/>
      <point x="776.0" y="794.0" type="qcurve" smooth="yes"/>
      <point x="776.0" y="836.0"/>
      <point x="718.0" y="874.0"/>
      <point x="654.0" y="874.0" type="qcurve" smooth="yes"/>
      <point x="594.0" y="874.0"/>
      <point x="442.0" y="772.0"/>
    </contour>
  </outline>
</glyph>
<glyph name="afii10072" format="2">
  <advance width="1574"/>
  <unicode hex="0436"/>
  <outline>
    <contour>
      <point x="-28.0" y="0.0" type="line" smooth="yes"/>
      <point x="-101.0" y="0.0"/>
      <point x="-42.0" y="74.0" type="qcurve" smooth="yes"/>
      <point x="196.0" y="372.0" type="line" smooth="yes"/>
      <point x="258.0" y="450.0"/>
      <point x="361.0" y="536.0"/>
      <point x="438.0" y="552.0" type="qcurve"/>
      <point x="439.0" y="554.0" type="line"/>
      <point x="379.0" y="570.0"/>
      <point x="299.0" y="688.0"/>
      <point x="288.0" y="716.0" type="qcurve" smooth="yes"/>
      <point x="188.0" y="976.0" type="line" smooth="yes"/>
      <point x="160.0" y="1050.0"/>
      <point x="236.0" y="1050.0" type="qcurve" smooth="yes"/>
      <point x="372.0" y="1050.0" type="line" smooth="yes"/>
      <point x="426.0" y="1050.0"/>
      <point x="441.0" y="1009.0" type="qcurve" smooth="yes"/>
      <point x="521.0" y="776.0" type="line" smooth="yes"/>
      <point x="537.0" y="729.0"/>
      <point x="609.0" y="648.0"/>
      <point x="661.0" y="648.0" type="qcurve" smooth="yes"/>
      <point x="677.0" y="648.0" type="line"/>
      <point x="756.0" y="990.0" type="line" smooth="yes"/>
      <point x="770.0" y="1050.0"/>
      <point x="829.0" y="1050.0" type="qcurve" smooth="yes"/>
      <point x="989.0" y="1050.0" type="line" smooth="yes"/>
      <point x="1049.0" y="1050.0"/>
      <point x="1036.0" y="990.0" type="qcurve" smooth="yes"/>
      <point x="957.0" y="648.0" type="line"/>
      <point x="973.0" y="648.0" type="line" smooth="yes"/>
      <point x="1003.0" y="648.0"/>
      <point x="1071.0" y="706.0"/>
      <point x="1127.0" y="776.0" type="qcurve" smooth="yes"/>
      <point x="1315.0" y="1009.0" type="line" smooth="yes"/>
      <point x="1348.0" y="1050.0"/>
      <point x="1402.0" y="1050.0" type="qcurve" smooth="yes"/>
      <point x="1582.0" y="1050.0" type="line" smooth="yes"/>
      <point x="1659.0" y="1050.0"/>
      <point x="1596.0" y="976.0" type="qcurve" smooth="yes"/>
      <point x="1376.0" y="716.0" type="line" smooth="yes"/>
      <point x="1332.0" y="664.0"/>
      <point x="1219.0" y="570.0"/>
      <point x="1151.0" y="554.0" type="qcurve"/>
      <point x="1150.0" y="552.0" type="line"/>
      <point x="1220.0" y="536.0"/>
      <point x="1291.0" y="429.0"/>
      <point x="1310.0" y="372.0" type="qcurve" smooth="yes"/>
      <point x="1410.0" y="74.0" type="line" smooth="yes"/>
      <point x="1435.0" y="0.0"/>
      <point x="1362.0" y="0.0" type="qcurve" smooth="yes"/>
      <point x="1219.0" y="0.0" type="line" smooth="yes"/>
      <point x="1164.0" y="0.0"/>
      <point x="1149.0" y="52.0" type="qcurve" smooth="yes"/>
      <point x="1064.0" y="338.0" type="line" smooth="yes"/>
      <point x="1054.0" y="372.0"/>
      <point x="1001.0" y="448.0"/>
      <point x="927.0" y="448.0" type="qcurve" smooth="yes"/>
      <point x="910.0" y="448.0" type="line"/>
      <point x="821.0" y="60.0" type="line" smooth="yes"/>
      <point x="807.0" y="0.0"/>
      <point x="747.0" y="0.0" type="qcurve" smooth="yes"/>
      <point x="587.0" y="0.0" type="line" smooth="yes"/>
      <point x="527.0" y="0.0"/>
      <point x="541.0" y="60.0" type="qcurve" smooth="yes"/>
      <point x="630.0" y="448.0" type="line"/>
      <point x="613.0" y="448.0" type="line" smooth="yes"/>
      <point x="583.0" y="448.0"/>
      <point x="530.0" y="418.0"/>
      <point x="470.0" y="338.0" type="qcurve" smooth="yes"/>
      <point x="253.0" y="52.0" type="line" smooth="yes"/>
      <point x="214.0" y="0.0"/>
      <point x="159.0" y="0.0" type="qcurve" smooth="yes"/>
    </contour>
  </outline>
</glyph>
<glyph name="afii10077" format="2">
  <advance width="1194"/>
  <unicode hex="043B"/>
  <outline>
    <contour>
      <point x="-52.0" y="-5.0" type="qcurve" smooth="yes"/>
      <point x="-76.0" y="6.0"/>
      <point x="-67.0" y="36.0" type="qcurve" smooth="yes"/>
      <point x="-32.0" y="158.0" type="line" smooth="yes"/>
      <point x="-23.0" y="190.0"/>
      <point x="7.0" y="183.0" type="qcurve" smooth="yes"/>
      <point x="36.0" y="176.0"/>
      <point x="67.0" y="176.0" type="qcurve" smooth="yes"/>
      <point x="208.0" y="176.0"/>
      <point x="306.0" y="391.0"/>
      <point x="384.0" y="698.0" type="qcurve" smooth="yes"/>
      <point x="400.0" y="761.0" type="line" smooth="yes"/>
      <point x="439.0" y="915.0"/>
      <point x="618.0" y="1050.0"/>
      <point x="825.0" y="1050.0" type="qcurve" smooth="yes"/>
      <point x="1120.0" y="1050.0" type="line" smooth="yes"/>
      <point x="1181.0" y="1050.0"/>
      <point x="1167.0" y="990.0" type="qcurve" smooth="yes"/>
      <point x="952.0" y="60.0" type="line" smooth="yes"/>
      <point x="938.0" y="0.0"/>
      <point x="878.0" y="0.0" type="qcurve" smooth="yes"/>
      <point x="718.0" y="0.0" type="line" smooth="yes"/>
      <point x="658.0" y="0.0"/>
      <point x="672.0" y="60.0" type="qcurve" smooth="yes"/>
      <point x="854.0" y="850.0" type="line"/>
      <point x="828.0" y="850.0" type="line" smooth="yes"/>
      <point x="710.0" y="850.0"/>
      <point x="639.0" y="809.0"/>
      <point x="619.0" y="730.0" type="qcurve" smooth="yes"/>
      <point x="604.0" y="671.0" type="line" smooth="yes"/>
      <point x="490.0" y="224.0"/>
      <point x="292.0" y="-20.0"/>
      <point x="53.0" y="-20.0" type="qcurve" smooth="yes"/>
      <point x="-19.0" y="-20.0"/>
    </contour>
  </outline>
</glyph>
<glyph name="afii10079" format="2">
  <advance width="1191"/>
  <unicode hex="043D"/>
  <outline>
    <contour>
      <point x="76.0" y="0.0" type="line" smooth="yes"/>
      <point x="16.0" y="0.0"/>
      <point x="30.0" y="60.0" type="qcurve" smooth="yes"/>
      <point x="245.0" y="990.0" type="line" smooth="yes"/>
      <point x="259.0" y="1050.0"/>
      <point x="318.0" y="1050.0" type="qcurve" smooth="yes"/>
      <point x="478.0" y="1050.0" type="line" smooth="yes"/>
      <point x="538.0" y="1050.0"/>
      <point x="525.0" y="990.0" type="qcurve" smooth="yes"/>
      <point x="446.0" y="648.0" type="line"/>
      <point x="806.0" y="648.0" type="line"/>
      <point x="885.0" y="990.0" type="line" smooth="yes"/>
      <point x="899.0" y="1050.0"/>
      <point x="958.0" y="1050.0" type="qcurve" smooth="yes"/>
      <point x="1118.0" y="1050.0" type="line" smooth="yes"/>
      <point x="1178.0" y="1050.0"/>
      <point x="1165.0" y="990.0" type="qcurve" smooth="yes"/>
      <point x="950.0" y="60.0" type="line" smooth="yes"/>
      <point x="936.0" y="0.0"/>
      <point x="876.0" y="0.0" type="qcurve" smooth="yes"/>
      <point x="716.0" y="0.0" type="line" smooth="yes"/>
      <point x="656.0" y="0.0"/>
      <point x="670.0" y="60.0" type="qcurve" smooth="yes"/>
      <point x="759.0" y="448.0" type="line"/>
      <point x="399.0" y="448.0" type="line"/>
      <point x="310.0" y="60.0" type="line" smooth="yes"/>
      <point x="296.0" y="0.0"/>
      <point x="236.0" y="0.0" type="qcurve" smooth="yes"/>
    </contour>
  </outline>
</glyph>
<glyph name="afii10086" format="2">
  <advance width="1738"/>
  <unicode hex="0444"/>
  <outline>
    <contour>
      <point x="63.0" y="414.0" type="qcurve" smooth="yes"/>
      <point x="63.0" y="627.0"/>
      <point x="379.0" y="1070.0"/>
      <point x="591.0" y="1070.0" type="qcurve" smooth="yes"/>
      <point x="657.0" y="1070.0"/>
      <point x="785.0" y="1034.0"/>
      <point x="826.0" y="937.0" type="qcurve"/>
      <point x="835.0" y="937.0" type="line"/>
      <point x="835.0" y="978.0"/>
      <point x="844.0" y="1017.0" type="qcurve" smooth="yes"/>
      <point x="936.0" y="1416.0" type="line" smooth="yes"/>
      <point x="950.0" y="1476.0"/>
      <point x="1010.0" y="1476.0" type="qcurve" smooth="yes"/>
      <point x="1170.0" y="1476.0" type="line" smooth="yes"/>
      <point x="1230.0" y="1476.0"/>
      <point x="1216.0" y="1416.0" type="qcurve" smooth="yes"/>
      <point x="1121.0" y="1004.0" type="line" smooth="yes"/>
      <point x="1112.0" y="965.0"/>
      <point x="1093.0" y="924.0" type="qcurve"/>
      <point x="1102.0" y="924.0" type="line"/>
      <point x="1169.0" y="1015.0"/>
      <point x="1290.0" y="1070.0"/>
      <point x="1343.0" y="1070.0" type="qcurve" smooth="yes"/>
      <point x="1524.0" y="1070.0"/>
      <point x="1678.0" y="840.0"/>
      <point x="1678.0" y="636.0" type="qcurve" smooth="yes"/>
      <point x="1678.0" y="423.0"/>
      <point x="1362.0" y="-20.0"/>
      <point x="1150.0" y="-20.0" type="qcurve" smooth="yes"/>
      <point x="1084.0" y="-20.0"/>
      <point x="956.0" y="16.0"/>
      <point x="915.0" y="113.0" type="qcurve"/>
      <point x="906.0" y="113.0" type="line"/>
      <point x="906.0" y="72.0"/>
      <point x="897.0" y="33.0" type="qcurve" smooth="yes"/>
      <point x="811.0" y="-340.0" type="line" smooth="yes"/>
      <point x="797.0" y="-400.0"/>
      <point x="737.0" y="-400.0" type="qcurve" smooth="yes"/>
      <point x="577.0" y="-400.0" type="line" smooth="yes"/>
      <point x="517.0" y="-400.0"/>
      <point x="531.0" y="-340.0" type="qcurve" smooth="yes"/>
      <point x="620.0" y="46.0" type="line"/>
      <point x="648.0" y="126.0" type="line"/>
      <point x="639.0" y="126.0" type="line"/>
      <point x="572.0" y="35.0"/>
      <point x="451.0" y="-20.0"/>
      <point x="398.0" y="-20.0" type="qcurve" smooth="yes"/>
      <point x="217.0" y="-20.0"/>
      <point x="63.0" y="210.0"/>
    </contour>
    <contour>
      <point x="359.0" y="396.0" type="qcurve" smooth="yes"/>
      <point x="359.0" y="292.0"/>
      <point x="399.0" y="176.0"/>
      <point x="460.0" y="176.0" type="qcurve" smooth="yes"/>
      <point x="543.0" y="176.0"/>
      <point x="698.0" y="384.0"/>
      <point x="723.0" y="493.0" type="qcurve" smooth="yes"/>
      <point x="764.0" y="672.0" type="line"/>
      <point x="764.0" y="762.0"/>
      <point x="699.0" y="874.0"/>
      <point x="630.0" y="874.0" type="qcurve" smooth="yes"/>
      <point x="511.0" y="874.0"/>
      <point x="359.0" y="562.0"/>
    </contour>
    <contour>
      <point x="977.0" y="378.0" type="line"/>
      <point x="977.0" y="288.0"/>
      <point x="1042.0" y="176.0"/>
      <point x="1111.0" y="176.0" type="qcurve" smooth="yes"/>
      <point x="1230.0" y="176.0"/>
      <point x="1382.0" y="488.0"/>
      <point x="1382.0" y="654.0" type="qcurve" smooth="yes"/>
      <point x="1382.0" y="758.0"/>
      <point x="1342.0" y="874.0"/>
      <point x="1281.0" y="874.0" type="qcurve" smooth="yes"/>
      <point x="1198.0" y="874.0"/>
      <point x="1043.0" y="666.0"/>
      <point x="1018.0" y="557.0" type="qcurve" smooth="yes"/>
    </contour>
  </outline>
</glyph>
<glyph name="afii10088" format="2">
  <advance width="1256"/>
  <unicode hex="0446"/>
  <outline>
    <contour>
      <point x="115.0" y="436.0" type="qcurve" smooth="yes"/>
      <point x="243.0" y="990.0" type="line" smooth="yes"/>
      <point x="257.0" y="1050.0"/>
      <point x="316.0" y="1050.0" type="qcurve" smooth="yes"/>
      <point x="476.0" y="1050.0" type="line" smooth="yes"/>
      <point x="537.0" y="1050.0"/>
      <point x="523.0" y="990.0" type="qcurve" smooth="yes"/>
      <point x="411.0" y="508.0" type="line" smooth="yes"/>
      <point x="362.0" y="296.0"/>
      <point x="410.0" y="176.0"/>
      <point x="491.0" y="176.0" type="qcurve" smooth="yes"/>
      <point x="592.0" y="176.0"/>
      <point x="756.0" y="415.0"/>
      <point x="806.0" y="635.0" type="qcurve" smooth="yes"/>
      <point x="887.0" y="990.0" type="line" smooth="yes"/>
      <point x="901.0" y="1050.0"/>
      <point x="960.0" y="1050.0" type="qcurve" smooth="yes"/>
      <point x="1120.0" y="1050.0" type="line" smooth="yes"/>
      <point x="1181.0" y="1050.0"/>
      <point x="1167.0" y="990.0" type="qcurve" smooth="yes"/>
      <point x="1013.0" y="325.0" type="line" smooth="yes"/>
      <point x="1002.0" y="280.0"/>
      <point x="1002.0" y="200.0"/>
      <point x="1048.0" y="200.0" type="qcurve" smooth="yes"/>
      <point x="1070.0" y="200.0" type="line" smooth="yes"/>
      <point x="1130.0" y="200.0"/>
      <point x="1116.0" y="140.0" type="qcurve" smooth="yes"/>
      <point x="1017.0" y="-290.0" type="line" smooth="yes"/>
      <point x="1003.0" y="-350.0"/>
      <point x="948.0" y="-350.0" type="qcurve" smooth="yes"/>
      <point x="828.0" y="-350.0" type="line" smooth="yes"/>
      <point x="773.0" y="-350.0"/>
      <point x="787.0" y="-290.0" type="qcurve" smooth="yes"/>
      <point x="854.0" y="0.0" type="line"/>
      <point x="842.0" y="0.0" type="line" smooth="yes"/>
      <point x="788.0" y="0.0"/>
      <point x="707.0" y="64.0"/>
      <point x="695.0" y="147.0" type="qcurve"/>
      <point x="691.0" y="147.0" type="line"/>
      <point x="611.0" y="53.0"/>
      <point x="466.0" y="-20.0"/>
      <point x="366.0" y="-20.0" type="qcurve" smooth="yes"/>
      <point x="224.0" y="-20.0"/>
      <point x="59.0" y="194.0"/>
    </contour>
  </outline>
</glyph>
<glyph name="afii10099" format="2">
  <advance width="1216"/>
  <unicode hex="0452"/>
  <outline>
    <contour>
      <point x="188.0" y="870.0" type="line" smooth="yes"/>
      <point x="128.0" y="870.0"/>
      <point x="139.0" y="920.0" type="qcurve" smooth="yes"/>
      <point x="162.0" y="1020.0" type="line" smooth="yes"/>
      <point x="174.0" y="1070.0"/>
      <point x="234.0" y="1070.0" type="qcurve" smooth="yes"/>
      <point x="325.0" y="1070.0" type="line"/>
      <point x="405.0" y="1416.0" type="line" smooth="yes"/>
      <point x="419.0" y="1476.0"/>
      <point x="479.0" y="1476.0" type="qcurve" smooth="yes"/>
      <point x="639.0" y="1476.0" type="line" smooth="yes"/>
      <point x="699.0" y="1476.0"/>
      <point x="685.0" y="1416.0" type="qcurve" smooth="yes"/>
      <point x="605.0" y="1070.0" type="line"/>
      <point x="968.0" y="1070.0" type="line" smooth="yes"/>
      <point x="1028.0" y="1070.0"/>
      <point x="1016.0" y="1020.0" type="qcurve" smooth="yes"/>
      <point x="993.0" y="920.0" type="line" smooth="yes"/>
      <point x="981.0" y="870.0"/>
      <point x="922.0" y="870.0" type="qcurve" smooth="yes"/>
      <point x="559.0" y="870.0" type="line"/>
      <point x="512.0" y="667.0" type="line" smooth="yes"/>
      <point x="502.0" y="624.0"/>
      <point x="490.0" y="587.0" type="qcurve"/>
      <point x="496.0" y="587.0" type="line"/>
      <point x="567.0" y="664.0"/>
      <point x="708.0" y="725.0"/>
      <point x="782.0" y="725.0" type="qcurve" smooth="yes"/>
      <point x="918.0" y="725.0"/>
      <point x="1087.0" y="537.0"/>
      <point x="1087.0" y="349.0" type="qcurve" smooth="yes"/>
      <point x="1088.0" y="118.0"/>
      <point x="718.0" y="-312.0"/>
      <point x="514.0" y="-396.0" type="qcurve" smooth="yes"/>
      <point x="453.0" y="-421.0"/>
      <point x="436.0" y="-378.0" type="qcurve" smooth="yes"/>
      <point x="405.0" y="-300.0" type="line" smooth="yes"/>
      <point x="387.0" y="-255.0"/>
      <point x="435.0" y="-228.0" type="qcurve" smooth="yes"/>
      <point x="580.0" y="-148.0"/>
      <point x="791.0" y="184.0"/>
      <point x="791.0" y="354.0" type="qcurve" smooth="yes"/>
      <point x="791.0" y="434.0"/>
      <point x="743.0" y="529.0"/>
      <point x="680.0" y="529.0" type="qcurve" smooth="yes"/>
      <point x="591.0" y="529.0"/>
      <point x="426.0" y="302.0"/>
      <point x="392.0" y="149.0" type="qcurve" smooth="yes"/>
      <point x="372.0" y="60.0" type="line" smooth="yes"/>
      <point x="359.0" y="0.0"/>
      <point x="298.0" y="0.0" type="qcurve" smooth="yes"/>
      <point x="138.0" y="0.0" type="line" smooth="yes"/>
      <point x="78.0" y="0.0"/>
      <point x="92.0" y="60.0" type="qcurve" smooth="yes"/>
      <point x="279.0" y="870.0" type="line"/>
    </contour>
  </outline>
</glyph>
<glyph name="afii10101" format="2">
  <advance width="1070"/>
  <unicode hex="0454"/>
  <outline>
    <contour>
      <point x="58.0" y="412.0" type="qcurve" smooth="yes"/>
      <point x="58.0" y="644.0"/>
      <point x="378.0" y="1070.0"/>
      <point x="673.0" y="1070.0" type="qcurve" smooth="yes"/>
      <point x="816.0" y="1070.0"/>
      <point x="972.0" y="992.0"/>
      <point x="1027.0" y="923.0" type="qcurve" smooth="yes"/>
      <point x="1056.0" y="886.0"/>
      <point x="1010.0" y="850.0" type="qcurve" smooth="yes"/>
      <point x="908.0" y="771.0" type="line" smooth="yes"/>
      <point x="877.0" y="747.0"/>
      <point x="831.0" y="801.0" type="qcurve" smooth="yes"/>
      <point x="810.0" y="826.0"/>
      <point x="730.0" y="874.0"/>
      <point x="663.0" y="874.0" type="qcurve" smooth="yes"/>
      <point x="546.0" y="874.0"/>
      <point x="409.0" y="706.0"/>
      <point x="396.0" y="648.0" type="qcurve"/>
      <point x="749.0" y="648.0" type="line" smooth="yes"/>
      <point x="809.0" y="648.0"/>
      <point x="797.0" y="598.0" type="qcurve" smooth="yes"/>
      <point x="774.0" y="498.0" type="line" smooth="yes"/>
      <point x="762.0" y="448.0"/>
      <point x="702.0" y="448.0" type="qcurve" smooth="yes"/>
      <point x="356.0" y="448.0" type="line"/>
      <point x="354.0" y="418.0"/>
      <point x="354.0" y="387.0" type="qcurve" smooth="yes"/>
      <point x="354.0" y="282.0"/>
      <point x="452.0" y="176.0"/>
      <point x="536.0" y="176.0" type="qcurve" smooth="yes"/>
      <point x="610.0" y="176.0"/>
      <point x="716.0" y="228.0"/>
      <point x="765.0" y="282.0" type="qcurve" smooth="yes"/>
      <point x="807.0" y="329.0"/>
      <point x="846.0" y="287.0" type="qcurve" smooth="yes"/>
      <point x="916.0" y="212.0" type="line" smooth="yes"/>
      <point x="955.0" y="171.0"/>
      <point x="914.0" y="124.0" type="qcurve" smooth="yes"/>
      <point x="874.0" y="78.0"/>
      <point x="682.0" y="-20.0"/>
      <point x="518.0" y="-20.0" type="qcurve" smooth="yes"/>
      <point x="258.0" y="-20.0"/>
      <point x="58.0" y="237.0"/>
    </contour>
  </outline>
</glyph>
<glyph name="afii10108" format="2">
  <advance width="1234"/>
  <unicode hex="045B"/>
  <outline>
    <contour>
      <point x="188.0" y="870.0" type="line" smooth="yes"/>
      <point x="128.0" y="870.0"/>
      <point x="139.0" y="920.0" type="qcurve" smooth="yes"/>
      <point x="162.0" y="1020.0" type="line" smooth="yes"/>
      <point x="174.0" y="1070.0"/>
      <point x="234.0" y="1070.0" type="qcurve" smooth="yes"/>
      <point x="325.0" y="1070.0" type="line"/>
      <point x="405.0" y="1416.0" type="line" smooth="yes"/>
      <point x="419.0" y="1476.0"/>
      <point x="479.0" y="1476.0" type="qcurve" smooth="yes"/>
      <point x="639.0" y="1476.0" type="line" smooth="yes"/>
      <point x="699.0" y="1476.0"/>
      <point x="685.0" y="1416.0" type="qcurve" smooth="yes"/>
      <point x="605.0" y="1070.0" type="line"/>
      <point x="968.0" y="1070.0" type="line" smooth="yes"/>
      <point x="1028.0" y="1070.0"/>
      <point x="1016.0" y="1020.0" type="qcurve" smooth="yes"/>
      <point x="993.0" y="920.0" type="line" smooth="yes"/>
      <point x="981.0" y="870.0"/>
      <point x="922.0" y="870.0" type="qcurve" smooth="yes"/>
      <point x="559.0" y="870.0" type="line"/>
      <point x="512.0" y="667.0" type="line" smooth="yes"/>
      <point x="502.0" y="624.0"/>
      <point x="490.0" y="587.0" type="qcurve"/>
      <point x="496.0" y="587.0" type="line"/>
      <point x="578.0" y="672.0"/>
      <point x="706.0" y="725.0"/>
      <point x="786.0" y="725.0" type="qcurve" smooth="yes"/>
      <point x="948.0" y="725.0"/>
      <point x="1105.0" y="507.0"/>
      <point x="1050.0" y="269.0" type="qcurve" smooth="yes"/>
      <point x="1002.0" y="60.0" type="line" smooth="yes"/>
      <point x="988.0" y="0.0"/>
      <point x="928.0" y="0.0" type="qcurve" smooth="yes"/>
      <point x="768.0" y="0.0" type="line" smooth="yes"/>
      <point x="708.0" y="0.0"/>
      <point x="722.0" y="60.0" type="qcurve" smooth="yes"/>
      <point x="756.0" y="207.0" type="line" smooth="yes"/>
      <point x="793.0" y="368.0"/>
      <point x="778.0" y="529.0"/>
      <point x="672.0" y="529.0" type="qcurve" smooth="yes"/>
      <point x="574.0" y="529.0"/>
      <point x="425.0" y="297.0"/>
      <point x="392.0" y="149.0" type="qcurve" smooth="yes"/>
      <point x="372.0" y="60.0" type="line" smooth="yes"/>
      <point x="359.0" y="0.0"/>
      <point x="298.0" y="0.0" type="qcurve" smooth="yes"/>
      <point x="138.0" y="0.0" type="line" smooth="yes"/>
      <point x="78.0" y="0.0"/>
      <point x="92.0" y="60.0" type="qcurve" smooth="yes"/>
      <point x="279.0" y="870.0" type="line"/>
    </contour>
  </outline>
</glyph>
<glyph name="afii10194" format="2">
  <advance width="1661"/>
  <unicode hex="0463"/>
  <outline>
    <contour>
      <point x="76.0" y="0.0" type="line" smooth="yes"/>
      <point x="16.0" y="0.0"/>
      <point x="30.0" y="60.0" type="qcurve" smooth="yes"/>
      <point x="245.0" y="990.0" type="line" smooth="yes"/>
      <point x="259.0" y="1050.0"/>
      <point x="318.0" y="1050.0" type="qcurve" smooth="yes"/>
      <point x="476.0" y="1050.0" type="line" smooth="yes"/>
      <point x="537.0" y="1050.0"/>
      <point x="523.0" y="990.0" type="qcurve" smooth="yes"/>
      <point x="497.0" y="880.0" type="line"/>
      <point x="501.0" y="880.0" type="line"/>
      <point x="578.0" y="984.0"/>
      <point x="738.0" y="1070.0"/>
      <point x="825.0" y="1070.0" type="qcurve" smooth="yes"/>
      <point x="955.0" y="1070.0"/>
      <point x="1087.0" y="833.0"/>
      <point x="1059.0" y="707.0" type="qcurve" smooth="yes"/>
      <point x="1050.0" y="667.0" type="line" smooth="yes"/>
      <point x="1040.0" y="624.0"/>
      <point x="1027.0" y="587.0" type="qcurve"/>
      <point x="1032.0" y="587.0" type="line"/>
      <point x="1065.0" y="628.0"/>
      <point x="1200.0" y="664.0"/>
      <point x="1256.0" y="664.0" type="qcurve" smooth="yes"/>
      <point x="1385.0" y="664.0"/>
      <point x="1565.0" y="496.0"/>
      <point x="1565.0" y="359.0" type="qcurve" smooth="yes"/>
      <point x="1565.0" y="222.0"/>
      <point x="1317.0" y="-20.0"/>
      <point x="1050.0" y="-20.0" type="qcurve" smooth="yes"/>
      <point x="825.0" y="-20.0"/>
      <point x="674.0" y="253.0"/>
      <point x="709.0" y="405.0" type="qcurve" smooth="yes"/>
      <point x="731.0" y="500.0" type="line" smooth="yes"/>
      <point x="778.0" y="704.0"/>
      <point x="764.0" y="874.0"/>
      <point x="704.0" y="874.0" type="qcurve" smooth="yes"/>
      <point x="624.0" y="874.0"/>
      <point x="434.0" y="600.0"/>
      <point x="370.0" y="322.0" type="qcurve" smooth="yes"/>
      <point x="310.0" y="60.0" type="line" smooth="yes"/>
      <point x="296.0" y="0.0"/>
      <point x="236.0" y="0.0" type="qcurve" smooth="yes"/>
    </contour>
    <contour>
      <point x="972.0" y="336.0" type="qcurve" smooth="yes"/>
      <point x="954.0" y="260.0"/>
      <point x="1025.0" y="176.0"/>
      <point x="1086.0" y="176.0" type="qcurve" smooth="yes"/>
      <point x="1172.0" y="176.0"/>
      <point x="1269.0" y="268.0"/>
      <point x="1269.0" y="358.0" type="qcurve" smooth="yes"/>
      <point x="1269.0" y="415.0"/>
      <point x="1200.0" y="468.0"/>
      <point x="1158.0" y="468.0" type="qcurve" smooth="yes"/>
      <point x="1093.0" y="468.0"/>
      <point x="988.0" y="404.0"/>
    </contour>
  </outline>
</glyph>
<glyph name="afii10147" format="2">
  <advance width="1544"/>
  <unicode hex="0472"/>
  <outline>
    <contour>
      <point x="104.0" y="587.0" type="qcurve" smooth="yes"/>
      <point x="104.0" y="957.0"/>
      <point x="530.0" y="1468.0"/>
      <point x="880.0" y="1468.0" type="qcurve" smooth="yes"/>
      <point x="1180.0" y="1468.0"/>
      <point x="1518.0" y="1157.0"/>
      <point x="1518.0" y="847.0" type="qcurve" smooth="yes"/>
      <point x="1518.0" y="477.0"/>
      <point x="1092.0" y="-34.0"/>
      <point x="742.0" y="-34.0" type="qcurve" smooth="yes"/>
      <point x="442.0" y="-34.0"/>
      <point x="104.0" y="277.0"/>
    </contour>
    <contour>
      <point x="416.0" y="545.0" type="qcurve" smooth="yes"/>
      <point x="416.0" y="385.0"/>
      <point x="586.0" y="202.0"/>
      <point x="756.0" y="202.0" type="qcurve" smooth="yes"/>
      <point x="926.0" y="202.0"/>
      <point x="1139.0" y="452.0"/>
      <point x="1178.0" y="622.0" type="qcurve"/>
      <point x="418.0" y="622.0" type="line"/>
      <point x="416.0" y="584.0"/>
    </contour>
    <contour>
      <point x="460.0" y="870.0" type="qcurve"/>
      <point x="1206.0" y="870.0" type="line"/>
      <point x="1206.0" y="879.0"/>
      <point x="1206.0" y="889.0" type="qcurve" smooth="yes"/>
      <point x="1206.0" y="1049.0"/>
      <point x="1036.0" y="1232.0"/>
      <point x="866.0" y="1232.0" type="qcurve" smooth="yes"/>
      <point x="690.0" y="1232.0"/>
      <point x="484.0" y="972.0"/>
    </contour>
  </outline>
</glyph>
<glyph name="afii10098" format="2">
  <advance width="910"/>
  <unicode hex="0491"/>
  <outline>
    <contour>
      <point x="76.0" y="0.0" type="line" smooth="yes"/>
      <point x="16.0" y="0.0"/>
      <point x="30.0" y="60.0" type="qcurve" smooth="yes"/>
      <point x="245.0" y="990.0" type="line" smooth="yes"/>
      <point x="259.0" y="1050.0"/>
      <point x="318.0" y="1050.0" type="qcurve" smooth="yes"/>
      <point x="780.0" y="1050.0" type="line"/>
      <point x="840.0" y="1306.0" type="line" smooth="yes"/>
      <point x="854.0" y="1366.0"/>
      <point x="908.0" y="1366.0" type="qcurve" smooth="yes"/>
      <point x="1028.0" y="1366.0" type="line" smooth="yes"/>
      <point x="1083.0" y="1366.0"/>
      <point x="1070.0" y="1306.0" type="qcurve" smooth="yes"/>
      <point x="978.0" y="910.0" type="line" smooth="yes"/>
      <point x="964.0" y="850.0"/>
      <point x="904.0" y="850.0" type="qcurve" smooth="yes"/>
      <point x="492.0" y="850.0" type="line"/>
      <point x="310.0" y="60.0" type="line" smooth="yes"/>
      <point x="296.0" y="0.0"/>
      <point x="236.0" y="0.0" type="qcurve" smooth="yes"/>
    </contour>
  </outline>
</glyph>
<glyph name="uni0498" format="2">
  <advance width="1354"/>
  <unicode hex="0498"/>
  <outline>
    <contour>
      <point x="87.0" y="156.0" type="qcurve" smooth="yes"/>
      <point x="38.0" y="220.0"/>
      <point x="78.0" y="255.0" type="qcurve" smooth="yes"/>
      <point x="181.0" y="344.0" type="line" smooth="yes"/>
      <point x="233.0" y="389.0"/>
      <point x="291.0" y="327.0" type="qcurve" smooth="yes"/>
      <point x="339.0" y="276.0"/>
      <point x="474.0" y="202.0"/>
      <point x="602.0" y="202.0" type="qcurve" smooth="yes"/>
      <point x="699.0" y="202.0"/>
      <point x="916.0" y="306.0"/>
      <point x="916.0" y="418.0" type="qcurve" smooth="yes"/>
      <point x="916.0" y="516.0"/>
      <point x="762.0" y="636.0"/>
      <point x="639.0" y="636.0" type="qcurve" smooth="yes"/>
      <point x="473.0" y="636.0" type="line" smooth="yes"/>
      <point x="397.0" y="636.0"/>
      <point x="412.0" y="699.0" type="qcurve" smooth="yes"/>
      <point x="437.0" y="807.0" type="line" smooth="yes"/>
      <point x="452.0" y="872.0"/>
      <point x="527.0" y="872.0" type="qcurve" smooth="yes"/>
      <point x="651.0" y="872.0" type="line" smooth="yes"/>
      <point x="840.0" y="872.0"/>
      <point x="975.0" y="999.0"/>
      <point x="975.0" y="1077.0" type="qcurve" smooth="yes"/>
      <point x="975.0" y="1167.0"/>
      <point x="818.0" y="1232.0"/>
      <point x="682.0" y="1232.0" type="qcurve" smooth="yes"/>
      <point x="597.0" y="1232.0"/>
      <point x="447.0" y="1161.0"/>
      <point x="408.0" y="1125.0" type="qcurve" smooth="yes"/>
      <point x="347.0" y="1070.0"/>
      <point x="297.0" y="1116.0" type="qcurve" smooth="yes"/>
      <point x="210.0" y="1197.0" type="line" smooth="yes"/>
      <point x="159.0" y="1245.0"/>
      <point x="223.0" y="1297.0" type="qcurve" smooth="yes"/>
      <point x="330.0" y="1385.0"/>
      <point x="564.0" y="1468.0"/>
      <point x="702.0" y="1468.0" type="qcurve" smooth="yes"/>
      <point x="987.0" y="1468.0"/>
      <point x="1271.0" y="1245.0"/>
      <point x="1271.0" y="1104.0" type="qcurve" smooth="yes"/>
      <point x="1271.0" y="954.0"/>
      <point x="1089.0" y="777.0"/>
      <point x="934.0" y="752.0" type="qcurve"/>
      <point x="933.0" y="748.0" type="line"/>
      <point x="1068.0" y="717.0"/>
      <point x="1228.0" y="537.0"/>
      <point x="1228.0" y="427.0" type="qcurve" smooth="yes"/>
      <point x="1228.0" y="243.0"/>
      <point x="884.0" y="-15.0"/>
      <point x="668.0" y="-31.0" type="qcurve"/>
      <point x="623.0" y="-86.0"/>
      <point x="582.0" y="-172.0"/>
      <point x="582.0" y="-201.0" type="qcurve" smooth="yes"/>
      <point x="582.0" y="-230.0"/>
      <point x="603.0" y="-250.0"/>
      <point x="625.0" y="-250.0" type="qcurve" smooth="yes"/>
      <point x="653.0" y="-250.0"/>
      <point x="676.0" y="-247.0" type="qcurve" smooth="yes"/>
      <point x="715.0" y="-241.0"/>
      <point x="716.0" y="-273.0" type="qcurve" smooth="yes"/>
      <point x="720.0" y="-368.0" type="line" smooth="yes"/>
      <point x="721.0" y="-402.0"/>
      <point x="684.0" y="-408.0" type="qcurve" smooth="yes"/>
      <point x="630.0" y="-417.0"/>
      <point x="557.0" y="-417.0" type="qcurve" smooth="yes"/>
      <point x="464.0" y="-417.0"/>
      <point x="367.0" y="-328.0"/>
      <point x="367.0" y="-267.0" type="qcurve" smooth="yes"/>
      <point x="367.0" y="-208.0"/>
      <point x="428.0" y="-83.0"/>
      <point x="473.0" y="-30.0" type="qcurve"/>
      <point x="337.0" y="-20.0"/>
      <point x="156.0" y="66.0"/>
    </contour>
  </outline>
</glyph>
<glyph name="uni0499" format="2">
  <advance width="1038"/>
  <unicode hex="0499"/>
  <outline>
    <contour>
      <point x="72.0" y="102.0" type="qcurve" smooth="yes"/>
      <point x="25.0" y="149.0"/>
      <point x="65.0" y="184.0" type="qcurve" smooth="yes"/>
      <point x="153.0" y="263.0" type="line" smooth="yes"/>
      <point x="206.0" y="311.0"/>
      <point x="248.0" y="266.0" type="qcurve" smooth="yes"/>
      <point x="278.0" y="234.0"/>
      <point x="350.0" y="176.0"/>
      <point x="430.0" y="176.0" type="qcurve" smooth="yes"/>
      <point x="524.0" y="176.0"/>
      <point x="615.0" y="284.0"/>
      <point x="615.0" y="337.0" type="qcurve" smooth="yes"/>
      <point x="615.0" y="380.0"/>
      <point x="560.0" y="448.0"/>
      <point x="475.0" y="448.0" type="qcurve" smooth="yes"/>
      <point x="335.0" y="448.0" type="line" smooth="yes"/>
      <point x="274.0" y="448.0"/>
      <point x="286.0" y="498.0" type="qcurve" smooth="yes"/>
      <point x="310.0" y="598.0" type="line" smooth="yes"/>
      <point x="322.0" y="648.0"/>
      <point x="381.0" y="648.0" type="qcurve" smooth="yes"/>
      <point x="513.0" y="648.0" type="line" smooth="yes"/>
      <point x="596.0" y="648.0"/>
      <point x="695.0" y="724.0"/>
      <point x="695.0" y="777.0" type="qcurve" smooth="yes"/>
      <point x="695.0" y="829.0"/>
      <point x="592.0" y="874.0"/>
      <point x="518.0" y="874.0" type="qcurve" smooth="yes"/>
      <point x="454.0" y="874.0"/>
      <point x="368.0" y="840.0"/>
      <point x="325.0" y="807.0" type="qcurve" smooth="yes"/>
      <point x="277.0" y="770.0"/>
      <point x="248.0" y="810.0" type="qcurve" smooth="yes"/>
      <point x="180.0" y="905.0" type="line" smooth="yes"/>
      <point x="147.0" y="951.0"/>
      <point x="187.0" y="980.0" type="qcurve" smooth="yes"/>
      <point x="234.0" y="1014.0"/>
      <point x="404.0" y="1070.0"/>
      <point x="536.0" y="1070.0" type="qcurve" smooth="yes"/>
      <point x="740.0" y="1070.0"/>
      <point x="969.0" y="941.0"/>
      <point x="969.0" y="822.0" type="qcurve" smooth="yes"/>
      <point x="969.0" y="725.0"/>
      <point x="840.0" y="586.0"/>
      <point x="750.0" y="559.0" type="qcurve"/>
      <point x="749.0" y="556.0" type="line"/>
      <point x="854.0" y="506.0"/>
      <point x="911.0" y="402.0"/>
      <point x="911.0" y="342.0" type="qcurve"/>
      <point x="910.0" y="188.0"/>
      <point x="672.0" y="6.0"/>
      <point x="519.0" y="-13.0" type="qcurve"/>
      <point x="462.0" y="-80.0"/>
      <point x="418.0" y="-172.0"/>
      <point x="418.0" y="-201.0" type="qcurve" smooth="yes"/>
      <point x="418.0" y="-230.0"/>
      <point x="439.0" y="-250.0"/>
      <point x="461.0" y="-250.0" type="qcurve" smooth="yes"/>
      <point x="489.0" y="-250.0"/>
      <point x="512.0" y="-247.0" type="qcurve" smooth="yes"/>
      <point x="551.0" y="-241.0"/>
      <point x="552.0" y="-273.0" type="qcurve" smooth="yes"/>
      <point x="556.0" y="-368.0" type="line" smooth="yes"/>
      <point x="557.0" y="-402.0"/>
      <point x="520.0" y="-408.0" type="qcurve" smooth="yes"/>
      <point x="466.0" y="-417.0"/>
      <point x="393.0" y="-417.0" type="qcurve" smooth="yes"/>
      <point x="300.0" y="-417.0"/>
      <point x="203.0" y="-328.0"/>
      <point x="203.0" y="-267.0" type="qcurve" smooth="yes"/>
      <point x="203.0" y="-208.0"/>
      <point x="268.0" y="-76.0"/>
      <point x="321.0" y="-16.0" type="qcurve"/>
      <point x="240.0" y="-6.0"/>
      <point x="116.0" y="58.0"/>
    </contour>
  </outline>
</glyph>
<glyph name="uni049A" format="2">
  <advance width="1417"/>
  <unicode hex="049A"/>
  <outline>
    <contour>
      <point x="110.0" y="0.0" type="line" smooth="yes"/>
      <point x="40.0" y="0.0"/>
      <point x="57.0" y="75.0" type="qcurve" smooth="yes"/>
      <point x="354.0" y="1359.0" type="line" smooth="yes"/>
      <point x="371.0" y="1434.0"/>
      <point x="441.0" y="1434.0" type="qcurve" smooth="yes"/>
      <point x="593.0" y="1434.0" type="line" smooth="yes"/>
      <point x="663.0" y="1434.0"/>
      <point x="646.0" y="1359.0" type="qcurve" smooth="yes"/>
      <point x="529.0" y="855.0" type="line"/>
      <point x="549.0" y="855.0" type="line" smooth="yes"/>
      <point x="615.0" y="855.0"/>
      <point x="768.0" y="966.0"/>
      <point x="842.0" y="1050.0" type="qcurve" smooth="yes"/>
      <point x="1127.0" y="1375.0" type="line" smooth="yes"/>
      <point x="1179.0" y="1434.0"/>
      <point x="1231.0" y="1434.0" type="qcurve" smooth="yes"/>
      <point x="1432.0" y="1434.0" type="line" smooth="yes"/>
      <point x="1529.0" y="1434.0"/>
      <point x="1450.0" y="1348.0" type="qcurve" smooth="yes"/>
      <point x="1090.0" y="954.0" type="line" smooth="yes"/>
      <point x="1024.0" y="882.0"/>
      <point x="904.0" y="783.0"/>
      <point x="820.0" y="735.0" type="qcurve"/>
      <point x="819.0" y="734.0" type="line"/>
      <point x="888.0" y="705.0"/>
      <point x="998.0" y="573.0"/>
      <point x="1035.0" y="480.0" type="qcurve" smooth="yes"/>
      <point x="1126.0" y="248.0" type="line"/>
      <point x="1255.0" y="248.0" type="line" smooth="yes"/>
      <point x="1325.0" y="248.0"/>
      <point x="1308.0" y="173.0" type="qcurve" smooth="yes"/>
      <point x="1199.0" y="-300.0" type="line" smooth="yes"/>
      <point x="1183.0" y="-370.0"/>
      <point x="1123.0" y="-370.0" type="qcurve" smooth="yes"/>
      <point x="993.0" y="-370.0" type="line" smooth="yes"/>
      <point x="933.0" y="-370.0"/>
      <point x="949.0" y="-300.0" type="qcurve" smooth="yes"/>
      <point x="1018.0" y="0.0" type="line"/>
      <point x="969.0" y="0.0" type="line" smooth="yes"/>
      <point x="914.0" y="0.0"/>
      <point x="893.0" y="59.0" type="qcurve" smooth="yes"/>
      <point x="779.0" y="384.0" type="line" smooth="yes"/>
      <point x="752.0" y="462.0"/>
      <point x="624.0" y="611.0"/>
      <point x="528.0" y="611.0" type="qcurve" smooth="yes"/>
      <point x="473.0" y="611.0" type="line"/>
      <point x="349.0" y="75.0" type="line" smooth="yes"/>
      <point x="332.0" y="0.0"/>
      <point x="262.0" y="0.0" type="qcurve" smooth="yes"/>
    </contour>
  </outline>
</glyph>
<glyph name="uni04A0" format="2">
  <advance width="1708"/>
  <unicode hex="04A0"/>
  <outline>
    <contour>
      <point x="263.0" y="1186.0" type="line" smooth="yes"/>
      <point x="188.0" y="1186.0"/>
      <point x="203.0" y="1251.0" type="qcurve" smooth="yes"/>
      <point x="230.0" y="1369.0" type="line" smooth="yes"/>
      <point x="245.0" y="1434.0"/>
      <point x="320.0" y="1434.0" type="qcurve" smooth="yes"/>
      <point x="953.0" y="1434.0" type="line" smooth="yes"/>
      <point x="1023.0" y="1434.0"/>
      <point x="1006.0" y="1359.0" type="qcurve" smooth="yes"/>
      <point x="889.0" y="855.0" type="line"/>
      <point x="909.0" y="855.0" type="line" smooth="yes"/>
      <point x="976.0" y="854.0"/>
      <point x="1129.0" y="966.0"/>
      <point x="1202.0" y="1050.0" type="qcurve" smooth="yes"/>
      <point x="1487.0" y="1375.0" type="line" smooth="yes"/>
      <point x="1539.0" y="1434.0"/>
      <point x="1591.0" y="1434.0" type="qcurve" smooth="yes"/>
      <point x="1792.0" y="1434.0" type="line" smooth="yes"/>
      <point x="1889.0" y="1434.0"/>
      <point x="1810.0" y="1348.0" type="qcurve" smooth="yes"/>
      <point x="1450.0" y="954.0" type="line" smooth="yes"/>
      <point x="1385.0" y="882.0"/>
      <point x="1264.0" y="782.0"/>
      <point x="1180.0" y="735.0" type="qcurve"/>
      <point x="1179.0" y="734.0" type="line"/>
      <point x="1248.0" y="705.0"/>
      <point x="1359.0" y="572.0"/>
      <point x="1395.0" y="480.0" type="qcurve" smooth="yes"/>
      <point x="1550.0" y="86.0" type="line" smooth="yes"/>
      <point x="1584.0" y="0.0"/>
      <point x="1492.0" y="0.0" type="qcurve" smooth="yes"/>
      <point x="1329.0" y="0.0" type="line" smooth="yes"/>
      <point x="1274.0" y="0.0"/>
      <point x="1253.0" y="59.0" type="qcurve" smooth="yes"/>
      <point x="1139.0" y="384.0" type="line" smooth="yes"/>
      <point x="1111.0" y="462.0"/>
      <point x="984.0" y="610.0"/>
      <point x="888.0" y="611.0" type="qcurve" smooth="yes"/>
      <point x="833.0" y="611.0" type="line"/>
      <point x="709.0" y="75.0" type="line" smooth="yes"/>
      <point x="692.0" y="0.0"/>
      <point x="622.0" y="0.0" type="qcurve" smooth="yes"/>
      <point x="470.0" y="0.0" type="line" smooth="yes"/>
      <point x="400.0" y="0.0"/>
      <point x="417.0" y="75.0" type="qcurve" smooth="yes"/>
      <point x="674.0" y="1186.0" type="line"/>
    </contour>
  </outline>
</glyph>
<glyph name="uni04A1" format="2">
  <advance width="1305"/>
  <unicode hex="04A1"/>
  <outline>
    <contour>
      <point x="183.0" y="850.0" type="line" smooth="yes"/>
      <point x="123.0" y="850.0"/>
      <point x="135.0" y="900.0" type="qcurve" smooth="yes"/>
      <point x="158.0" y="1000.0" type="line" smooth="yes"/>
      <point x="170.0" y="1050.0"/>
      <point x="229.0" y="1050.0" type="qcurve" smooth="yes"/>
      <point x="698.0" y="1050.0" type="line" smooth="yes"/>
      <point x="759.0" y="1050.0"/>
      <point x="745.0" y="990.0" type="qcurve" smooth="yes"/>
      <point x="666.0" y="648.0" type="line"/>
      <point x="689.0" y="648.0" type="line" smooth="yes"/>
      <point x="718.0" y="648.0"/>
      <point x="784.0" y="697.0"/>
      <point x="849.0" y="776.0" type="qcurve" smooth="yes"/>
      <point x="1041.0" y="1009.0" type="line" smooth="yes"/>
      <point x="1075.0" y="1050.0"/>
      <point x="1128.0" y="1050.0" type="qcurve" smooth="yes"/>
      <point x="1312.0" y="1050.0" type="line" smooth="yes"/>
      <point x="1390.0" y="1050.0"/>
      <point x="1326.0" y="976.0" type="qcurve" smooth="yes"/>
      <point x="1102.0" y="716.0" type="line" smooth="yes"/>
      <point x="1046.0" y="651.0"/>
      <point x="940.0" y="570.0"/>
      <point x="875.0" y="554.0" type="qcurve"/>
      <point x="874.0" y="552.0" type="line"/>
      <point x="932.0" y="542.0"/>
      <point x="1012.0" y="443.0"/>
      <point x="1037.0" y="372.0" type="qcurve" smooth="yes"/>
      <point x="1141.0" y="74.0" type="line" smooth="yes"/>
      <point x="1167.0" y="0.0"/>
      <point x="1093.0" y="0.0" type="qcurve" smooth="yes"/>
      <point x="946.0" y="0.0" type="line" smooth="yes"/>
      <point x="892.0" y="0.0"/>
      <point x="876.0" y="52.0" type="qcurve" smooth="yes"/>
      <point x="787.0" y="338.0" type="line" smooth="yes"/>
      <point x="767.0" y="401.0"/>
      <point x="694.0" y="448.0"/>
      <point x="643.0" y="448.0" type="qcurve" smooth="yes"/>
      <point x="619.0" y="448.0" type="line"/>
      <point x="530.0" y="60.0" type="line" smooth="yes"/>
      <point x="516.0" y="0.0"/>
      <point x="456.0" y="0.0" type="qcurve" smooth="yes"/>
      <point x="296.0" y="0.0" type="line" smooth="yes"/>
      <point x="236.0" y="0.0"/>
      <point x="250.0" y="60.0" type="qcurve" smooth="yes"/>
      <point x="432.0" y="850.0" type="line"/>
    </contour>
  </outline>
</glyph>
<glyph name="uni04A3" format="2">
  <advance width="1254"/>
  <unicode hex="04A3"/>
  <outline>
    <contour>
      <point x="76.0" y="0.0" type="line" smooth="yes"/>
      <point x="16.0" y="0.0"/>
      <point x="30.0" y="60.0" type="qcurve" smooth="yes"/>
      <point x="245.0" y="990.0" type="line" smooth="yes"/>
      <point x="259.0" y="1050.0"/>
      <point x="318.0" y="1050.0" type="qcurve" smooth="yes"/>
      <point x="478.0" y="1050.0" type="line" smooth="yes"/>
      <point x="539.0" y="1050.0"/>
      <point x="525.0" y="990.0" type="qcurve" smooth="yes"/>
      <point x="446.0" y="648.0" type="line"/>
      <point x="806.0" y="648.0" type="line"/>
      <point x="885.0" y="990.0" type="line" smooth="yes"/>
      <point x="899.0" y="1050.0"/>
      <point x="958.0" y="1050.0" type="qcurve" smooth="yes"/>
      <point x="1118.0" y="1050.0" type="line" smooth="yes"/>
      <point x="1179.0" y="1050.0"/>
      <point x="1165.0" y="990.0" type="qcurve" smooth="yes"/>
      <point x="982.0" y="200.0" type="line"/>
      <point x="1068.0" y="200.0" type="line" smooth="yes"/>
      <point x="1128.0" y="200.0"/>
      <point x="1114.0" y="140.0" type="qcurve" smooth="yes"/>
      <point x="1015.0" y="-290.0" type="line" smooth="yes"/>
      <point x="1001.0" y="-350.0"/>
      <point x="946.0" y="-350.0" type="qcurve" smooth="yes"/>
      <point x="826.0" y="-350.0" type="line" smooth="yes"/>
      <point x="771.0" y="-350.0"/>
      <point x="785.0" y="-290.0" type="qcurve" smooth="yes"/>
      <point x="852.0" y="0.0" type="line"/>
      <point x="716.0" y="0.0" type="line" smooth="yes"/>
      <point x="656.0" y="0.0"/>
      <point x="670.0" y="60.0" type="qcurve" smooth="yes"/>
      <point x="759.0" y="448.0" type="line"/>
      <point x="399.0" y="448.0" type="line"/>
      <point x="310.0" y="60.0" type="line" smooth="yes"/>
      <point x="296.0" y="0.0"/>
      <point x="236.0" y="0.0" type="qcurve" smooth="yes"/>
    </contour>
  </outline>
</glyph>
<glyph name="uni04A4" format="2">
  <advance width="1908"/>
  <unicode hex="04A4"/>
  <outline>
    <contour>
      <point x="110.0" y="0.0" type="line" smooth="yes"/>
      <point x="40.0" y="0.0"/>
      <point x="57.0" y="75.0" type="qcurve" smooth="yes"/>
      <point x="354.0" y="1359.0" type="line" smooth="yes"/>
      <point x="371.0" y="1434.0"/>
      <point x="441.0" y="1434.0" type="qcurve" smooth="yes"/>
      <point x="593.0" y="1434.0" type="line" smooth="yes"/>
      <point x="663.0" y="1434.0"/>
      <point x="646.0" y="1359.0" type="qcurve" smooth="yes"/>
      <point x="533.0" y="870.0" type="line"/>
      <point x="1071.0" y="870.0" type="line"/>
      <point x="1184.0" y="1359.0" type="line" smooth="yes"/>
      <point x="1201.0" y="1434.0"/>
      <point x="1271.0" y="1434.0" type="qcurve" smooth="yes"/>
      <point x="2010.0" y="1434.0" type="line" smooth="yes"/>
      <point x="2085.0" y="1434.0"/>
      <point x="2070.0" y="1369.0" type="qcurve" smooth="yes"/>
      <point x="2043.0" y="1251.0" type="line" smooth="yes"/>
      <point x="2028.0" y="1186.0"/>
      <point x="1953.0" y="1186.0" type="qcurve" smooth="yes"/>
      <point x="1436.0" y="1186.0" type="line"/>
      <point x="1179.0" y="75.0" type="line" smooth="yes"/>
      <point x="1162.0" y="0.0"/>
      <point x="1092.0" y="0.0" type="qcurve" smooth="yes"/>
      <point x="940.0" y="0.0" type="line" smooth="yes"/>
      <point x="870.0" y="0.0"/>
      <point x="887.0" y="75.0" type="qcurve" smooth="yes"/>
      <point x="1014.0" y="622.0" type="line"/>
      <point x="476.0" y="622.0" type="line"/>
      <point x="349.0" y="75.0" type="line" smooth="yes"/>
      <point x="332.0" y="0.0"/>
      <point x="262.0" y="0.0" type="qcurve" smooth="yes"/>
    </contour>
  </outline>
</glyph>
<glyph name="uni04B2" format="2">
  <advance width="1470"/>
  <unicode hex="04B2"/>
  <outline>
    <contour>
      <point x="-12.0" y="0.0" type="line" smooth="yes"/>
      <point x="-109.0" y="0.0"/>
      <point x="-30.0" y="86.0" type="qcurve" smooth="yes"/>
      <point x="594.0" y="764.0" type="line"/>
      <point x="297.0" y="1348.0" type="line" smooth="yes"/>
      <point x="253.0" y="1434.0"/>
      <point x="355.0" y="1434.0" type="qcurve" smooth="yes"/>
      <point x="531.0" y="1434.0" type="line" smooth="yes"/>
      <point x="582.0" y="1434.0"/>
      <point x="607.0" y="1375.0" type="qcurve" smooth="yes"/>
      <point x="782.0" y="958.0" type="line"/>
      <point x="1120.0" y="1375.0" type="line" smooth="yes"/>
      <point x="1168.0" y="1434.0"/>
      <point x="1224.0" y="1434.0" type="qcurve" smooth="yes"/>
      <point x="1459.0" y="1434.0" type="line" smooth="yes"/>
      <point x="1557.0" y="1434.0"/>
      <point x="1477.0" y="1348.0" type="qcurve" smooth="yes"/>
      <point x="898.0" y="722.0" type="line"/>
      <point x="1140.0" y="248.0" type="line"/>
      <point x="1277.0" y="248.0" type="line" smooth="yes"/>
      <point x="1347.0" y="248.0"/>
      <point x="1330.0" y="173.0" type="qcurve" smooth="yes"/>
      <point x="1221.0" y="-300.0" type="line" smooth="yes"/>
      <point x="1205.0" y="-370.0"/>
      <point x="1145.0" y="-370.0" type="qcurve" smooth="yes"/>
      <point x="1015.0" y="-370.0" type="line" smooth="yes"/>
      <point x="955.0" y="-370.0"/>
      <point x="971.0" y="-300.0" type="qcurve" smooth="yes"/>
      <point x="1040.0" y="0.0" type="line"/>
      <point x="985.0" y="0.0" type="line" smooth="yes"/>
      <point x="934.0" y="0.0"/>
      <point x="909.0" y="59.0" type="qcurve" smooth="yes"/>
      <point x="709.0" y="528.0" type="line"/>
      <point x="330.0" y="59.0" type="line" smooth="yes"/>
      <point x="282.0" y="0.0"/>
      <point x="226.0" y="0.0" type="qcurve" smooth="yes"/>
    </contour>
  </outline>
</glyph>
<glyph name="uni04B6" format="2">
  <advance width="1400"/>
  <unicode hex="04B6"/>
  <outline>
    <contour>
      <point x="212.0" y="953.0" type="qcurve" smooth="yes"/>
      <point x="306.0" y="1359.0" type="line" smooth="yes"/>
      <point x="323.0" y="1434.0"/>
      <point x="393.0" y="1434.0" type="qcurve" smooth="yes"/>
      <point x="545.0" y="1434.0" type="line" smooth="yes"/>
      <point x="615.0" y="1434.0"/>
      <point x="598.0" y="1359.0" type="qcurve" smooth="yes"/>
      <point x="510.0" y="980.0" type="line" smooth="yes"/>
      <point x="482.0" y="858.0"/>
      <point x="544.0" y="760.0"/>
      <point x="612.0" y="760.0" type="qcurve" smooth="yes"/>
      <point x="684.0" y="760.0"/>
      <point x="829.0" y="786.0"/>
      <point x="927.0" y="827.0" type="qcurve"/>
      <point x="1050.0" y="1359.0" type="line" smooth="yes"/>
      <point x="1067.0" y="1434.0"/>
      <point x="1137.0" y="1434.0" type="qcurve" smooth="yes"/>
      <point x="1289.0" y="1434.0" type="line" smooth="yes"/>
      <point x="1359.0" y="1434.0"/>
      <point x="1342.0" y="1359.0" type="qcurve" smooth="yes"/>
      <point x="1085.0" y="248.0" type="line"/>
      <point x="1207.0" y="248.0" type="line" smooth="yes"/>
      <point x="1277.0" y="248.0"/>
      <point x="1260.0" y="173.0" type="qcurve" smooth="yes"/>
      <point x="1151.0" y="-300.0" type="line" smooth="yes"/>
      <point x="1135.0" y="-370.0"/>
      <point x="1075.0" y="-370.0" type="qcurve" smooth="yes"/>
      <point x="945.0" y="-370.0" type="line" smooth="yes"/>
      <point x="885.0" y="-370.0"/>
      <point x="901.0" y="-300.0" type="qcurve" smooth="yes"/>
      <point x="970.0" y="0.0" type="line"/>
      <point x="806.0" y="0.0" type="line" smooth="yes"/>
      <point x="736.0" y="0.0"/>
      <point x="753.0" y="75.0" type="qcurve" smooth="yes"/>
      <point x="849.0" y="491.0" type="line" smooth="yes"/>
      <point x="862.0" y="549.0"/>
      <point x="882.0" y="611.0" type="qcurve"/>
      <point x="875.0" y="611.0" type="line"/>
      <point x="794.0" y="574.0"/>
      <point x="612.0" y="524.0"/>
      <point x="514.0" y="524.0" type="qcurve" smooth="yes"/>
      <point x="354.0" y="524.0"/>
      <point x="170.0" y="770.0"/>
    </contour>
  </outline>
</glyph>
<glyph name="uni04BA" format="2">
  <advance width="1312"/>
  <unicode hex="04BA"/>
  <outline>
    <contour>
      <point x="524.0" y="823.0" type="line"/>
      <point x="714.458984375" y="910.0"/>
      <point x="887.0" y="910.0" type="qcurve" smooth="yes"/>
      <point x="1049.0" y="910.0"/>
      <point x="1233.0" y="661.0"/>
      <point x="1191.0" y="481.0" type="qcurve" smooth="yes"/>
      <point x="1097.0" y="75.0" type="line" smooth="yes"/>
      <point x="1080.0" y="0.0"/>
      <point x="1010.0" y="0.0" type="qcurve" smooth="yes"/>
      <point x="858.0" y="0.0" type="line" smooth="yes"/>
      <point x="788.0" y="0.0"/>
      <point x="805.0" y="75.0" type="qcurve" smooth="yes"/>
      <point x="893.0" y="454.0" type="line" smooth="yes"/>
      <point x="920.0" y="572.0"/>
      <point x="859.0" y="674.0"/>
      <point x="789.0" y="674.0" type="qcurve" smooth="yes"/>
      <point x="632.14599609375" y="674.0"/>
      <point x="472.0" y="607.0" type="qcurve"/>
      <point x="349.0" y="75.0" type="line" smooth="yes"/>
      <point x="332.0" y="0.0"/>
      <point x="262.0" y="0.0" type="qcurve" smooth="yes"/>
      <point x="110.0" y="0.0" type="line" smooth="yes"/>
      <point x="40.0" y="0.0"/>
      <point x="57.0" y="75.0" type="qcurve" smooth="yes"/>
      <point x="354.0" y="1359.0" type="line" smooth="yes"/>
      <point x="371.0" y="1434.0"/>
      <point x="441.0" y="1434.0" type="qcurve" smooth="yes"/>
      <point x="593.0" y="1434.0" type="line" smooth="yes"/>
      <point x="663.0" y="1434.0"/>
      <point x="646.0" y="1359.0" type="qcurve" smooth="yes"/>
      <point x="550.0" y="943.0" type="line" smooth="yes"/>
      <point x="536.0" y="881.0"/>
      <point x="517.0" y="823.0" type="qcurve"/>
    </contour>
  </outline>
</glyph>
<glyph name="afii10846" format="2">
  <advance width="1170"/>
  <unicode hex="04D9"/>
  <outline>
    <contour>
      <point x="60.0" y="280.0" type="qcurve" smooth="yes"/>
      <point x="60.0" y="456.0"/>
      <point x="276.0" y="602.0"/>
      <point x="546.0" y="642.0" type="qcurve" smooth="yes"/>
      <point x="815.0" y="682.0" type="line"/>
      <point x="816.0" y="695.0"/>
      <point x="816.0" y="703.0" type="qcurve" smooth="yes"/>
      <point x="816.0" y="768.0"/>
      <point x="744.0" y="874.0"/>
      <point x="630.0" y="874.0" type="qcurve" smooth="yes"/>
      <point x="558.0" y="874.0"/>
      <point x="391.0" y="805.0"/>
      <point x="342.0" y="776.0" type="qcurve" smooth="yes"/>
      <point x="286.0" y="744.0"/>
      <point x="262.0" y="786.0" type="qcurve" smooth="yes"/>
      <point x="217.0" y="865.0" type="line" smooth="yes"/>
      <point x="187.0" y="918.0"/>
      <point x="236.0" y="951.0" type="qcurve" smooth="yes"/>
      <point x="324.0" y="1010.0"/>
      <point x="535.0" y="1070.0"/>
      <point x="640.0" y="1070.0" type="qcurve" smooth="yes"/>
      <point x="894.0" y="1070.0"/>
      <point x="1114.0" y="816.0"/>
      <point x="1114.0" y="635.0" type="qcurve" smooth="yes"/>
      <point x="1114.0" y="404.0"/>
      <point x="794.0" y="-20.0"/>
      <point x="493.0" y="-20.0" type="qcurve" smooth="yes"/>
      <point x="278.0" y="-20.0"/>
      <point x="60.0" y="160.0"/>
    </contour>
    <contour>
      <point x="304.0" y="312.0" type="qcurve" smooth="yes"/>
      <point x="304.0" y="256.0"/>
      <point x="390.0" y="176.0"/>
      <point x="490.0" y="176.0" type="qcurve" smooth="yes"/>
      <point x="634.0" y="176.0"/>
      <point x="773.0" y="380.0"/>
      <point x="800.0" y="499.0" type="qcurve"/>
      <point x="583.0" y="463.0" type="line" smooth="yes"/>
      <point x="437.0" y="439.0"/>
      <point x="304.0" y="390.0"/>
    </contour>
  </outline>
</glyph>
<glyph name="emdash" format="2">
  <advance width="2056"/>
  <unicode hex="2014"/>
  <outline>
    <contour>
      <point x="103.0" y="453.0" type="line" smooth="yes"/>
      <point x="43.0" y="453.0"/>
      <point x="43.0" y="503.0" type="qcurve" smooth="yes"/>
      <point x="43.0" y="603.0" type="line" smooth="yes"/>
      <point x="43.0" y="653.0"/>
      <point x="103.0" y="653.0" type="qcurve" smooth="yes"/>
      <point x="1961.0" y="653.0" type="line" smooth="yes"/>
      <point x="2021.0" y="653.0"/>
      <point x="2021.0" y="603.0" type="qcurve" smooth="yes"/>
      <point x="2021.0" y="503.0" type="line" smooth="yes"/>
      <point x="2021.0" y="453.0"/>
      <point x="1961.0" y="453.0" type="qcurve" smooth="yes"/>
    </contour>
  </outline>
</glyph>
<glyph name="dagger" format="2">
  <advance width="1060"/>
  <unicode hex="2020"/>
  <outline>
    <contour>
      <point x="196.0" y="850.0" type="line" smooth="yes"/>
      <point x="141.0" y="850.0"/>
      <point x="154.0" y="905.0" type="qcurve" smooth="yes"/>
      <point x="169.0" y="971.0" type="line" smooth="yes"/>
      <point x="182.0" y="1026.0"/>
      <point x="237.0" y="1026.0" type="qcurve" smooth="yes"/>
      <point x="507.0" y="1026.0" type="line"/>
      <point x="567.0" y="1006.0" type="line"/>
      <point x="562.0" y="1071.0" type="line"/>
      <point x="622.0" y="1329.0" type="line" smooth="yes"/>
      <point x="635.0" y="1384.0"/>
      <point x="680.0" y="1384.0" type="qcurve" smooth="yes"/>
      <point x="780.0" y="1384.0" type="line" smooth="yes"/>
      <point x="825.0" y="1384.0"/>
      <point x="812.0" y="1329.0" type="qcurve" smooth="yes"/>
      <point x="752.0" y="1071.0" type="line"/>
      <point x="717.0" y="1006.0" type="line"/>
      <point x="787.0" y="1026.0" type="line"/>
      <point x="1057.0" y="1026.0" type="line" smooth="yes"/>
      <point x="1112.0" y="1026.0"/>
      <point x="1099.0" y="971.0" type="qcurve" smooth="yes"/>
      <point x="1084.0" y="905.0" type="line" smooth="yes"/>
      <point x="1071.0" y="850.0"/>
      <point x="1016.0" y="850.0" type="qcurve" smooth="yes"/>
      <point x="746.0" y="850.0" type="line"/>
      <point x="686.0" y="870.0" type="line"/>
      <point x="691.0" y="804.0" type="line"/>
      <point x="530.0" y="110.0" type="line"/>
      <point x="422.0" y="-255.0" type="line" smooth="yes"/>
      <point x="405.0" y="-310.0"/>
      <point x="359.0" y="-310.0" type="qcurve" smooth="yes"/>
      <point x="317.0" y="-310.0" type="line" smooth="yes"/>
      <point x="271.0" y="-310.0"/>
      <point x="280.0" y="-255.0" type="qcurve" smooth="yes"/>
      <point x="340.0" y="110.0" type="line"/>
      <point x="501.0" y="804.0" type="line"/>
      <point x="536.0" y="870.0" type="line"/>
      <point x="466.0" y="850.0" type="line"/>
    </contour>
  </outline>
</glyph>
<glyph name="bullet" format="2">
  <advance width="1024"/>
  <unicode hex="2022"/>
  <outline>
    <contour>
      <point x="300.0" y="694.0" type="qcurve" smooth="yes"/>
      <point x="300.0" y="798.0"/>
      <point x="448.0" y="946.0"/>
      <point x="552.0" y="946.0" type="qcurve" smooth="yes"/>
      <point x="656.0" y="946.0"/>
      <point x="804.0" y="798.0"/>
      <point x="804.0" y="694.0" type="qcurve" smooth="yes"/>
      <point x="804.0" y="590.0"/>
      <point x="656.0" y="442.0"/>
      <point x="552.0" y="442.0" type="qcurve" smooth="yes"/>
      <point x="448.0" y="442.0"/>
      <point x="300.0" y="590.0"/>
    </contour>
  </outline>
</glyph>
<glyph name="guilsinglleft" format="2">
  <advance width="706"/>
  <unicode hex="2039"/>
  <outline>
    <contour>
      <point x="116.0" y="498.0" type="line" smooth="yes"/>
      <point x="94.0" y="537.0"/>
      <point x="134.0" y="576.0" type="qcurve" smooth="yes"/>
      <point x="511.0" y="942.0" type="line" smooth="yes"/>
      <point x="547.0" y="977.0"/>
      <point x="573.0" y="952.0" type="qcurve" smooth="yes"/>
      <point x="654.0" y="875.0" type="line" smooth="yes"/>
      <point x="676.0" y="854.0"/>
      <point x="636.0" y="815.0" type="qcurve" smooth="yes"/>
      <point x="327.0" y="518.0" type="line"/>
      <point x="509.0" y="202.0" type="line" smooth="yes"/>
      <point x="532.0" y="163.0"/>
      <point x="499.0" y="142.0" type="qcurve" smooth="yes"/>
      <point x="405.0" y="82.0" type="line" smooth="yes"/>
      <point x="367.0" y="58.0"/>
      <point x="347.0" y="92.0" type="qcurve" smooth="yes"/>
    </contour>
  </outline>
</glyph>
<glyph name="uni2076" format="2">
  <advance width="640"/>
  <unicode hex="2076"/>
  <outline>
    <contour>
      <point x="164.0" y="954.0" type="qcurve" smooth="yes"/>
      <point x="164.0" y="1184.0"/>
      <point x="388.0" y="1468.0"/>
      <point x="550.0" y="1468.0" type="qcurve" smooth="yes"/>
      <point x="614.0" y="1468.0"/>
      <point x="704.0" y="1432.0"/>
      <point x="733.0" y="1403.0" type="qcurve" smooth="yes"/>
      <point x="754.0" y="1382.0"/>
      <point x="737.0" y="1364.0" type="qcurve" smooth="yes"/>
      <point x="686.0" y="1308.0" type="line" smooth="yes"/>
      <point x="669.0" y="1289.0"/>
      <point x="646.0" y="1310.0" type="qcurve" smooth="yes"/>
      <point x="625.0" y="1330.0"/>
      <point x="577.0" y="1341.0"/>
      <point x="543.0" y="1341.0" type="qcurve" smooth="yes"/>
      <point x="492.0" y="1341.0"/>
      <point x="364.0" y="1224.0"/>
      <point x="343.0" y="1132.0" type="qcurve"/>
      <point x="345.0" y="1132.0" type="line"/>
      <point x="379.0" y="1166.0"/>
      <point x="458.0" y="1197.0"/>
      <point x="504.0" y="1197.0" type="qcurve" smooth="yes"/>
      <point x="590.0" y="1197.0"/>
      <point x="698.0" y="1097.0"/>
      <point x="698.0" y="994.0" type="qcurve" smooth="yes"/>
      <point x="698.0" y="852.0"/>
      <point x="520.0" y="694.0"/>
      <point x="391.0" y="694.0" type="qcurve" smooth="yes"/>
      <point x="290.0" y="694.0"/>
      <point x="164.0" y="814.0"/>
    </contour>
    <contour>
      <point x="322.0" y="907.0" type="qcurve" smooth="yes"/>
      <point x="322.0" y="864.0"/>
      <point x="362.0" y="821.0"/>
      <point x="401.0" y="821.0" type="qcurve" smooth="yes"/>
      <point x="458.0" y="821.0"/>
      <point x="536.0" y="913.0"/>
      <point x="536.0" y="980.0" type="qcurve" smooth="yes"/>
      <point x="536.0" y="1026.0"/>
      <point x="503.0" y="1070.0"/>
      <point x="460.0" y="1070.0" type="qcurve" smooth="yes"/>
      <point x="407.0" y="1070.0"/>
      <point x="322.0" y="954.0"/>
    </contour>
  </outline>
</glyph>
<glyph name="Euro" format="2">
  <advance width="1200"/>
  <unicode hex="20AC"/>
  <outline>
    <contour>
      <point x="49.0" y="474.0" type="line" smooth="yes"/>
      <point x="-6.0" y="474.0"/>
      <point x="11.0" y="519.0" type="qcurve" smooth="yes"/>
      <point x="45.0" y="611.0" type="line" smooth="yes"/>
      <point x="62.0" y="656.0"/>
      <point x="117.0" y="656.0" type="qcurve" smooth="yes"/>
      <point x="135.0" y="656.0" type="line"/>
      <point x="145.0" y="725.0"/>
      <point x="160.0" y="788.0" type="qcurve"/>
      <point x="116.0" y="788.0" type="line" smooth="yes"/>
      <point x="61.0" y="788.0"/>
      <point x="78.0" y="833.0" type="qcurve" smooth="yes"/>
      <point x="112.0" y="925.0" type="line" smooth="yes"/>
      <point x="129.0" y="970.0"/>
      <point x="184.0" y="970.0" type="qcurve" smooth="yes"/>
      <point x="221.0" y="970.0" type="line"/>
      <point x="281.0" y="1146.0"/>
      <point x="640.0" y="1456.0"/>
      <point x="921.0" y="1456.0" type="qcurve" smooth="yes"/>
      <point x="1014.0" y="1456.0"/>
      <point x="1173.0" y="1410.0"/>
      <point x="1248.0" y="1326.0" type="qcurve" smooth="yes"/>
      <point x="1299.0" y="1269.0"/>
      <point x="1256.0" y="1234.0" type="qcurve" smooth="yes"/>
      <point x="1148.0" y="1147.0" type="line" smooth="yes"/>
      <point x="1107.0" y="1114.0"/>
      <point x="1063.0" y="1162.0" type="qcurve" smooth="yes"/>
      <point x="1025.0" y="1204.0"/>
      <point x="932.0" y="1232.0"/>
      <point x="871.0" y="1232.0" type="qcurve" smooth="yes"/>
      <point x="754.0" y="1232.0"/>
      <point x="580.0" y="1070.0"/>
      <point x="531.0" y="970.0" type="qcurve"/>
      <point x="880.0" y="970.0" type="line" smooth="yes"/>
      <point x="935.0" y="970.0"/>
      <point x="918.0" y="925.0" type="qcurve" smooth="yes"/>
      <point x="884.0" y="833.0" type="line" smooth="yes"/>
      <point x="867.0" y="788.0"/>
      <point x="812.0" y="788.0" type="qcurve" smooth="yes"/>
      <point x="458.0" y="788.0" type="line"/>
      <point x="439.0" y="724.0"/>
      <point x="428.0" y="656.0" type="qcurve"/>
      <point x="813.0" y="656.0" type="line" smooth="yes"/>
      <point x="868.0" y="656.0"/>
      <point x="851.0" y="611.0" type="qcurve" smooth="yes"/>
      <point x="817.0" y="519.0" type="line" smooth="yes"/>
      <point x="800.0" y="474.0"/>
      <point x="745.0" y="474.0" type="qcurve" smooth="yes"/>
      <point x="411.0" y="474.0" type="line"/>
      <point x="411.0" y="461.0"/>
      <point x="411.0" y="447.0" type="qcurve" smooth="yes"/>
      <point x="411.0" y="294.0"/>
      <point x="525.0" y="190.0"/>
      <point x="624.0" y="190.0" type="qcurve" smooth="yes"/>
      <point x="711.0" y="190.0"/>
      <point x="810.0" y="234.0"/>
      <point x="864.0" y="275.0" type="qcurve" smooth="yes"/>
      <point x="927.0" y="323.0"/>
      <point x="955.0" y="289.0" type="qcurve" smooth="yes"/>
      <point x="1030.0" y="197.0" type="line" smooth="yes"/>
      <point x="1068.0" y="150.0"/>
      <point x="1021.0" y="109.0" type="qcurve" smooth="yes"/>
      <point x="936.0" y="36.0"/>
      <point x="719.0" y="-35.0"/>
      <point x="596.0" y="-35.0" type="qcurve" smooth="yes"/>
      <point x="354.0" y="-35.0"/>
      <point x="119.0" y="213.0"/>
      <point x="119.0" y="409.0" type="qcurve" smooth="yes"/>
      <point x="119.0" y="442.0"/>
      <point x="120.0" y="474.0" type="qcurve"/>
    </contour>
  </outline>
</glyph>
<glyph name="trademark" format="2">
  <advance width="1696"/>
  <unicode hex="2122"/>
  <outline>
    <contour>
      <point x="236.0" y="1294.0" type="line" smooth="yes"/>
      <point x="197.0" y="1294.0"/>
      <point x="197.0" y="1326.0" type="qcurve" smooth="yes"/>
      <point x="197.0" y="1402.0" type="line" smooth="yes"/>
      <point x="197.0" y="1434.0"/>
      <point x="236.0" y="1434.0" type="qcurve" smooth="yes"/>
      <point x="771.0" y="1434.0" type="line" smooth="yes"/>
      <point x="809.0" y="1434.0"/>
      <point x="809.0" y="1402.0" type="qcurve" smooth="yes"/>
      <point x="809.0" y="1326.0" type="line" smooth="yes"/>
      <point x="809.0" y="1294.0"/>
      <point x="771.0" y="1294.0" type="qcurve" smooth="yes"/>
      <point x="598.0" y="1294.0" type="line"/>
      <point x="598.0" y="800.0" type="line" smooth="yes"/>
      <point x="598.0" y="762.0"/>
      <point x="559.0" y="762.0" type="qcurve" smooth="yes"/>
      <point x="446.0" y="762.0" type="line" smooth="yes"/>
      <point x="408.0" y="762.0"/>
      <point x="408.0" y="800.0" type="qcurve" smooth="yes"/>
      <point x="408.0" y="1294.0" type="line"/>
    </contour>
    <contour>
      <point x="926.0" y="762.0" type="line" smooth="yes"/>
      <point x="888.0" y="762.0"/>
      <point x="888.0" y="800.0" type="qcurve" smooth="yes"/>
      <point x="888.0" y="1396.0" type="line" smooth="yes"/>
      <point x="888.0" y="1434.0"/>
      <point x="926.0" y="1434.0" type="qcurve" smooth="yes"/>
      <point x="1113.0" y="1434.0" type="line" smooth="yes"/>
      <point x="1156.0" y="1434.0"/>
      <point x="1168.0" y="1392.0" type="qcurve" smooth="yes"/>
      <point x="1274.0" y="1014.0" type="line" smooth="yes"/>
      <point x="1279.0" y="995.0"/>
      <point x="1290.0" y="941.0"/>
      <point x="1290.0" y="922.0" type="qcurve"/>
      <point x="1293.0" y="922.0" type="line"/>
      <point x="1293.0" y="941.0"/>
      <point x="1304.0" y="995.0"/>
      <point x="1309.0" y="1014.0" type="qcurve" smooth="yes"/>
      <point x="1416.0" y="1392.0" type="line" smooth="yes"/>
      <point x="1428.0" y="1434.0"/>
      <point x="1470.0" y="1434.0" type="qcurve" smooth="yes"/>
      <point x="1656.0" y="1434.0" type="line" smooth="yes"/>
      <point x="1695.0" y="1434.0"/>
      <point x="1695.0" y="1396.0" type="qcurve" smooth="yes"/>
      <point x="1695.0" y="800.0" type="line" smooth="yes"/>
      <point x="1695.0" y="762.0"/>
      <point x="1656.0" y="762.0" type="qcurve" smooth="yes"/>
      <point x="1544.0" y="762.0" type="line" smooth="yes"/>
      <point x="1505.0" y="762.0"/>
      <point x="1505.0" y="800.0" type="qcurve" smooth="yes"/>
      <point x="1505.0" y="1124.0" type="line" smooth="yes"/>
      <point x="1505.0" y="1150.0"/>
      <point x="1508.0" y="1175.0" type="qcurve"/>
      <point x="1505.0" y="1175.0" type="line"/>
      <point x="1400.0" y="801.0" type="line" smooth="yes"/>
      <point x="1389.0" y="762.0"/>
      <point x="1365.0" y="762.0" type="qcurve" smooth="yes"/>
      <point x="1218.0" y="762.0" type="line" smooth="yes"/>
      <point x="1195.0" y="762.0"/>
      <point x="1184.0" y="801.0" type="qcurve" smooth="yes"/>
      <point x="1078.0" y="1175.0" type="line"/>
      <point x="1075.0" y="1175.0" type="line"/>
      <point x="1078.0" y="1150.0"/>
      <point x="1078.0" y="1124.0" type="qcurve" smooth="yes"/>
      <point x="1078.0" y="800.0" type="line" smooth="yes"/>
      <point x="1078.0" y="762.0"/>
      <point x="1039.0" y="762.0" type="qcurve" smooth="yes"/>
    </contour>
  </outline>
</glyph>
<glyph name="integral" format="2">
  <advance width="726"/>
  <unicode hex="222B"/>
  <outline>
    <contour>
      <point x="-160.0" y="-440.0" type="qcurve" smooth="yes"/>
      <point x="-192.0" y="-419.0"/>
      <point x="-173.0" y="-375.0" type="qcurve" smooth="yes"/>
      <point x="-128.0" y="-274.0" type="line" smooth="yes"/>
      <point x="-109.0" y="-230.0"/>
      <point x="-65.0" y="-250.0" type="qcurve" smooth="yes"/>
      <point x="-47.0" y="-258.0"/>
      <point x="0.0" y="-264.0"/>
      <point x="22.0" y="-264.0" type="qcurve" smooth="yes"/>
      <point x="81.0" y="-264.0"/>
      <point x="155.0" y="-164.0"/>
      <point x="173.0" y="-88.0" type="qcurve" smooth="yes"/>
      <point x="218.0" y="108.0"/>
      <point x="218.0" y="867.0"/>
      <point x="268.0" y="1074.0" type="qcurve" smooth="yes"/>
      <point x="316.0" y="1273.0"/>
      <point x="471.0" y="1547.0"/>
      <point x="657.0" y="1644.0"/>
      <point x="756.0" y="1644.0" type="qcurve" smooth="yes"/>
      <point x="810.0" y="1644.0"/>
      <point x="890.0" y="1620.0"/>
      <point x="917.0" y="1601.0" type="qcurve" smooth="yes"/>
      <point x="943.0" y="1583.0"/>
      <point x="927.0" y="1549.0" type="qcurve" smooth="yes"/>
      <point x="876.0" y="1441.0" type="line" smooth="yes"/>
      <point x="856.0" y="1399.0"/>
      <point x="820.0" y="1416.0" type="qcurve" smooth="yes"/>
      <point x="803.0" y="1424.0"/>
      <point x="766.0" y="1430.0"/>
      <point x="738.0" y="1430.0" type="qcurve" smooth="yes"/>
      <point x="681.0" y="1430.0"/>
      <point x="602.0" y="1356.0"/>
      <point x="586.0" y="1287.0" type="qcurve" smooth="yes"/>
      <point x="540.0" y="1086.0"/>
      <point x="539.0" y="300.0"/>
      <point x="505.0" y="150.0" type="qcurve" smooth="yes"/>
      <point x="464.0" y="-28.0"/>
      <point x="329.0" y="-338.0"/>
      <point x="123.0" y="-478.0"/>
      <point x="1.0" y="-478.0" type="qcurve" smooth="yes"/>
      <point x="-44.0" y="-478.0"/>
      <point x="-129.0" y="-461.0"/>
    </contour>
  </outline>
</glyph>
<glyph name="uni2C6E" format="2">
  <advance width="1828"/>
  <unicode hex="2C6E"/>
  <outline>
    <contour>
      <point x="110.0" y="0.0" type="line" smooth="yes"/>
      <point x="40.0" y="0.0"/>
      <point x="57.0" y="75.0" type="qcurve" smooth="yes"/>
      <point x="354.0" y="1359.0" type="line" smooth="yes"/>
      <point x="371.0" y="1434.0"/>
      <point x="441.0" y="1434.0" type="qcurve" smooth="yes"/>
      <point x="717.0" y="1434.0" type="line" smooth="yes"/>
      <point x="776.0" y="1434.0"/>
      <point x="782.0" y="1354.0" type="qcurve" smooth="yes"/>
      <point x="850.0" y="477.0" type="line" smooth="yes"/>
      <point x="855.0" y="413.0"/>
      <point x="852.0" y="347.0"/>
      <point x="846.0" y="297.0" type="qcurve"/>
      <point x="852.0" y="297.0" type="line"/>
      <point x="869.0" y="347.0"/>
      <point x="896.0" y="414.0"/>
      <point x="930.0" y="477.0" type="qcurve" smooth="yes"/>
      <point x="1404.0" y="1354.0" type="line" smooth="yes"/>
      <point x="1447.0" y="1434.0"/>
      <point x="1505.0" y="1434.0" type="qcurve" smooth="yes"/>
      <point x="1809.0" y="1434.0" type="line" smooth="yes"/>
      <point x="1879.0" y="1434.0"/>
      <point x="1862.0" y="1359.0" type="qcurve" smooth="yes"/>
      <point x="1556.0" y="35.0" type="line" smooth="yes"/>
      <point x="1501.0" y="-202.0"/>
      <point x="1261.0" y="-420.0"/>
      <point x="1071.0" y="-420.0" type="qcurve" smooth="yes"/>
      <point x="968.0" y="-420.0"/>
      <point x="887.0" y="-389.0" type="qcurve" smooth="yes"/>
      <point x="847.0" y="-374.0"/>
      <point x="865.0" y="-320.0" type="qcurve" smooth="yes"/>
      <point x="904.0" y="-206.0" type="line" smooth="yes"/>
      <point x="924.0" y="-146.0"/>
      <point x="976.0" y="-167.0" type="qcurve" smooth="yes"/>
      <point x="1020.0" y="-184.0"/>
      <point x="1067.0" y="-184.0" type="qcurve" smooth="yes"/>
      <point x="1144.0" y="-184.0"/>
      <point x="1240.0" y="-69.0"/>
      <point x="1277.0" y="91.0" type="qcurve" smooth="yes"/>
      <point x="1464.0" y="901.0" type="line" smooth="yes"/>
      <point x="1477.0" y="955.0"/>
      <point x="1497.0" y="1021.0" type="qcurve"/>
      <point x="1490.0" y="1021.0" type="line"/>
      <point x="984.0" y="81.0" type="line" smooth="yes"/>
      <point x="940.0" y="0.0"/>
      <point x="879.0" y="0.0" type="qcurve" smooth="yes"/>
      <point x="709.0" y="0.0" type="line" smooth="yes"/>
      <point x="648.0" y="0.0"/>
      <point x="642.0" y="81.0" type="qcurve" smooth="yes"/>
      <point x="570.0" y="1021.0" type="line"/>
      <point x="563.0" y="1021.0" type="line"/>
      <point x="553.0" y="959.0"/>
      <point x="540.0" y="901.0" type="qcurve" smooth="yes"/>
      <point x="349.0" y="75.0" type="line" smooth="yes"/>
      <point x="332.0" y="0.0"/>
      <point x="262.0" y="0.0" type="qcurve" smooth="yes"/>
    </contour>
  </outline>
</glyph>
<glyph name="caron.alt" format="2">
  <advance width="614"/>
  <unicode hex="E088"/>
  <outline>
    <contour>
      <point x="301.0" y="1163.0" type="line" smooth="yes"/>
      <point x="266.0" y="1182.0"/>
      <point x="296.0" y="1224.0" type="qcurve" smooth="yes"/>
      <point x="317.0" y="1253.0"/>
      <point x="360.0" y="1356.0"/>
      <point x="369.0" y="1394.0" type="qcurve" smooth="yes"/>
      <point x="374.0" y="1416.0" type="line" smooth="yes"/>
      <point x="388.0" y="1476.0"/>
      <point x="448.0" y="1476.0" type="qcurve" smooth="yes"/>
      <point x="608.0" y="1476.0" type="line" smooth="yes"/>
      <point x="667.0" y="1476.0"/>
      <point x="654.0" y="1416.0" type="qcurve" smooth="yes"/>
      <point x="652.0" y="1407.0" type="line" smooth="yes"/>
      <point x="625.0" y="1285.0"/>
      <point x="518.0" y="1157.0"/>
      <point x="486.0" y="1133.0" type="qcurve" smooth="yes"/>
      <point x="431.0" y="1092.0"/>
      <point x="399.0" y="1108.0" type="qcurve" smooth="yes"/>
    </contour>
  </outline>
</glyph>
<glyph name="one.oldstyle.tab" format="2">
  <advance width="1200"/>
  <unicode hex="F644"/>
  <outline>
    <contour>
      <point x="234.0" y="786.0" type="line" smooth="yes"/>
      <point x="218.0" y="836.0"/>
      <point x="271.0" y="855.0" type="qcurve" smooth="yes"/>
      <point x="333.0" y="877.0"/>
      <point x="501.0" y="978.0"/>
      <point x="552.0" y="1028.0" type="qcurve" smooth="yes"/>
      <point x="610.0" y="1084.0"/>
      <point x="651.0" y="1084.0" type="qcurve" smooth="yes"/>
      <point x="810.0" y="1084.0" type="line" smooth="yes"/>
      <point x="870.0" y="1084.0"/>
      <point x="856.0" y="1024.0" type="qcurve" smooth="yes"/>
      <point x="677.0" y="248.0" type="line"/>
      <point x="875.0" y="248.0" type="line" smooth="yes"/>
      <point x="950.0" y="248.0"/>
      <point x="935.0" y="183.0" type="qcurve" smooth="yes"/>
      <point x="908.0" y="65.0" type="line" smooth="yes"/>
      <point x="893.0" y="0.0"/>
      <point x="819.0" y="0.0" type="qcurve" smooth="yes"/>
      <point x="141.0" y="0.0" type="line" smooth="yes"/>
      <point x="67.0" y="0.0"/>
      <point x="82.0" y="65.0" type="qcurve" smooth="yes"/>
      <point x="109.0" y="183.0" type="line" smooth="yes"/>
      <point x="124.0" y="248.0"/>
      <point x="199.0" y="248.0" type="qcurve" smooth="yes"/>
      <point x="397.0" y="248.0" type="line"/>
      <point x="489.0" y="647.0" type="line" smooth="yes"/>
      <point x="498.0" y="686.0"/>
      <point x="512.0" y="727.0" type="qcurve"/>
      <point x="508.0" y="727.0" type="line"/>
      <point x="468.0" y="688.0"/>
      <point x="387.0" y="645.0"/>
      <point x="341.0" y="628.0" type="qcurve" smooth="yes"/>
      <point x="290.0" y="609.0"/>
      <point x="276.0" y="654.0" type="qcurve" smooth="yes"/>
    </contour>
  </outline>
</glyph>
<glyph name="cyrBreve" format="2">
  <advance width="1492"/>
  <unicode hex="F6D1"/>
  <outline>
    <contour>
      <point x="636.0" y="1809.0" type="line" smooth="yes"/>
      <point x="646.0" y="1877.0"/>
      <point x="714.0" y="1877.0" type="qcurve" smooth="yes"/>
      <point x="822.0" y="1877.0" type="line" smooth="yes"/>
      <point x="881.0" y="1877.0"/>
      <point x="875.0" y="1829.0" type="qcurve" smooth="yes"/>
      <point x="871.0" y="1796.0" type="line" smooth="yes"/>
      <point x="867.0" y="1761.0"/>
      <point x="912.0" y="1698.0"/>
      <point x="988.0" y="1698.0" type="qcurve" smooth="yes"/>
      <point x="1106.0" y="1698.0"/>
      <point x="1268.0" y="1832.0"/>
      <point x="1311.0" y="1886.0" type="qcurve" smooth="yes"/>
      <point x="1349.0" y="1934.0"/>
      <point x="1389.0" y="1904.0" type="qcurve" smooth="yes"/>
      <point x="1443.0" y="1863.0" type="line" smooth="yes"/>
      <point x="1477.0" y="1837.0"/>
      <point x="1445.0" y="1793.0" type="qcurve" smooth="yes"/>
      <point x="1374.0" y="1694.0"/>
      <point x="1134.0" y="1540.0"/>
      <point x="951.0" y="1540.0" type="qcurve" smooth="yes"/>
      <point x="790.0" y="1540.0"/>
      <point x="614.0" y="1666.0"/>
      <point x="628.0" y="1756.0" type="qcurve" smooth="yes"/>
    </contour>
  </outline>
</glyph>
<glyph name="fl" format="2">
  <advance width="1214"/>
  <unicode hex="FB02"/>
  <outline>
    <contour>
      <point x="177.0" y="850.0" type="line" smooth="yes"/>
      <point x="119.0" y="850.0"/>
      <point x="130.0" y="900.0" type="qcurve" smooth="yes"/>
      <point x="153.0" y="1000.0" type="line" smooth="yes"/>
      <point x="165.0" y="1050.0"/>
      <point x="223.0" y="1050.0" type="qcurve" smooth="yes"/>
      <point x="279.0" y="1050.0" type="line"/>
      <point x="297.0" y="1126.0" type="line" smooth="yes"/>
      <point x="336.0" y="1289.0"/>
      <point x="564.0" y="1496.0"/>
      <point x="847.0" y="1496.0" type="qcurve" smooth="yes"/>
      <point x="1001.0" y="1496.0"/>
      <point x="1209.0" y="1430.0"/>
      <point x="1273.0" y="1364.0" type="qcurve"/>
      <point x="972.0" y="60.0" type="line" smooth="yes"/>
      <point x="958.0" y="0.0"/>
      <point x="898.0" y="0.0" type="qcurve" smooth="yes"/>
      <point x="738.0" y="0.0" type="line" smooth="yes"/>
      <point x="678.0" y="0.0"/>
      <point x="692.0" y="60.0" type="qcurve" smooth="yes"/>
      <point x="968.0" y="1256.0" type="line"/>
      <point x="944.0" y="1282.0"/>
      <point x="872.0" y="1300.0"/>
      <point x="826.0" y="1300.0" type="qcurve" smooth="yes"/>
      <point x="717.0" y="1300.0"/>
      <point x="598.0" y="1205.0"/>
      <point x="568.0" y="1086.0" type="qcurve" smooth="yes"/>
      <point x="559.0" y="1050.0" type="line"/>
      <point x="683.0" y="1050.0" type="line" smooth="yes"/>
      <point x="743.0" y="1050.0"/>
      <point x="731.0" y="1000.0" type="qcurve" smooth="yes"/>
      <point x="708.0" y="900.0" type="line" smooth="yes"/>
      <point x="696.0" y="850.0"/>
      <point x="637.0" y="850.0" type="qcurve" smooth="yes"/>
      <point x="513.0" y="850.0" type="line"/>
      <point x="239.0" y="-340.0" type="line" smooth="yes"/>
      <point x="225.0" y="-400.0"/>
      <point x="165.0" y="-400.0" type="qcurve" smooth="yes"/>
      <point x="5.0" y="-400.0" type="line" smooth="yes"/>
      <point x="-55.0" y="-400.0"/>
      <point x="-41.0" y="-340.0" type="qcurve" smooth="yes"/>
      <point x="233.0" y="850.0" type="line"/>
    </contour>
  </outline>
</glyph>
<glyph name="one.tab" format="2">
  <advance width="1200"/>
  <outline>
    <contour>
      <point x="310.0" y="1143.0" type="line" smooth="yes"/>
      <point x="291.0" y="1186.0"/>
      <point x="362.0" y="1219.0" type="qcurve" smooth="yes"/>
      <point x="430.0" y="1250.0"/>
      <point x="576.0" y="1332.0"/>
      <point x="635.0" y="1389.0" type="qcurve" smooth="yes"/>
      <point x="688.0" y="1440.0"/>
      <point x="733.0" y="1440.0" type="qcurve" smooth="yes"/>
      <point x="892.0" y="1440.0" type="line" smooth="yes"/>
      <point x="952.0" y="1440.0"/>
      <point x="939.0" y="1380.0" type="qcurve" smooth="yes"/>
      <point x="666.0" y="200.0" type="line"/>
      <point x="879.0" y="200.0" type="line" smooth="yes"/>
      <point x="939.0" y="200.0"/>
      <point x="928.0" y="150.0" type="qcurve" smooth="yes"/>
      <point x="905.0" y="50.0" type="line" smooth="yes"/>
      <point x="893.0" y="0.0"/>
      <point x="834.0" y="0.0" type="qcurve" smooth="yes"/>
      <point x="126.0" y="0.0" type="line" smooth="yes"/>
      <point x="67.0" y="0.0"/>
      <point x="79.0" y="50.0" type="qcurve" smooth="yes"/>
      <point x="102.0" y="150.0" type="line" smooth="yes"/>
      <point x="114.0" y="200.0"/>
      <point x="173.0" y="200.0" type="qcurve" smooth="yes"/>
      <point x="386.0" y="200.0" type="line"/>
      <point x="571.0" y="1001.0" type="line" smooth="yes"/>
      <point x="580.0" y="1041.0"/>
      <point x="594.0" y="1081.0" type="qcurve"/>
      <point x="590.0" y="1081.0" type="line"/>
      <point x="550.0" y="1042.0"/>
      <point x="482.0" y="992.0"/>
      <point x="438.0" y="974.0" type="qcurve" smooth="yes"/>
      <point x="393.0" y="955.0"/>
      <point x="373.0" y="1000.0" type="qcurve" smooth="yes"/>
    </contour>
  </outline>
</glyph>
